<?xml version="1.0" standalone="no"?>
<!DOCTYPE svg PUBLIC "-//W3C//DTD SVG 1.1//EN" "http://www.w3.org/Graphics/SVG/1.1/DTD/svg11.dtd" >
<!--
2013-9-30: Created.
-->
<svg>
<metadata>
Created by iconfont
</metadata>
<defs>

<font id="bi-iconfont" horiz-adv-x="1024" >
  <font-face
    font-family="bi-iconfont"
    font-weight="500"
    font-stretch="normal"
    units-per-em="1024"
    ascent="896"
    descent="-128"
  />
    <missing-glyph />
    
    <glyph glyph-name="jianchaxiang" unicode="&#59242;" d="M582.144 307.712c23.04 27.648 36.864 63.488 36.864 101.888 0 88.576-71.68 159.744-159.744 159.744S299.52 497.664 299.52 409.6s71.68-159.744 159.744-159.744c35.328 0 67.584 11.264 94.208 30.72l114.688-114.688c6.144-6.144 16.384-6.144 22.528 0l5.632 5.632c6.144 6.144 6.144 16.384 0 22.528l-114.176 113.664z m-49.152 515.584c6.144-6.144 11.264-10.752 16.384-14.336 69.632-52.736 196.096-87.04 311.296-94.72 4.096-0.512 9.728-0.512 16.384-1.024 8.704-0.512 15.36-7.68 15.36-16.896v-342.016c0-81.408-33.28-166.4-87.552-224.768-28.16-38.912-64-75.776-101.376-111.616-99.328-107.52-267.264-107.008-375.296-11.776-42.496 37.376-81.408 81.408-116.224 131.072-51.2 57.856-79.36 134.144-79.36 212.992V695.808c0 9.216 6.656 16.384 15.36 16.896 7.68 0.512 14.336 0.512 18.944 1.024 115.712 8.192 242.176 43.008 310.784 96.256 4.608 3.584 9.216 7.68 14.336 13.312 11.264 11.776 29.184 11.776 40.96 0zM458.752 297.98400000000004c-61.952 0-112.128 50.176-112.128 112.128S397.312 522.24 458.752 522.24s112.128-50.176 112.128-112.128-50.176-112.128-112.128-112.128z"  horiz-adv-x="1024" />

    
    <glyph glyph-name="zhanbi1" unicode="&#58956;" d="M856.259 97.85599998999999L569.608 385.029l286.34000001 286.856c64.791-77.787 104.12199999-177.589 104.12199998-286.856 0.001-109.258-39.041-209.33200001-103.81099999-287.17299999zM552.731 831.846c93.091-8.42000001 177.675-45.664 245.572-102.287L552.731 483.547V831.846z m-69.53400001-475.672l315.45900002-316.025c-77.698-64.88700001-177.591-103.995-286.65700001-103.995-247.463 0-448.06999999 200.966-448.07 448.875 0 234.131 178.995 426.17000001 407.34 446.817v-446.817"  horiz-adv-x="1024" />

    
    <glyph glyph-name="yuqi" unicode="&#58957;" d="M940.23017577 229.38017577999995c10.8-21.51035156 14.30947266-46.53017578 14.30947266-71.63964844 0-25.02070312-3.6-50.13017578-14.4-71.64052734-10.70947266-25.01982422-21.41894531-42.93017578-39.32929688-60.83964844-17.91035156-18-39.42070312-28.62070312-60.84052734-39.42070312-21.6-10.8-46.61982422-14.30947266-71.63964844-14.30947266-25.11035156 0-50.13017578 3.6-71.63964844 14.4a178.91982422 178.91982422 0 0 0-60.93017578 39.33017578 354.77929688 354.77929688 0 0 0-39.33105469 60.83964844c-10.79912109 21.6-14.39912109 46.61982422-14.39912109 71.63964844 0 25.11035156 3.6 50.13017578 14.4 71.63964844 10.8 25.11035156 21.41982422 43.02070313 39.33017578 60.93105468 18 17.81982422 39.41894531 28.61982422 60.92929688 39.32929688 21.51035156 10.8 46.53017578 14.4 71.63964843 14.4 25.02070312 0 50.13105469-3.6 71.64052735-14.4 25.01982422-10.8 42.93017578-21.50947266 60.84052734-39.32929688 18-18 28.61982422-39.42070312 39.41894531-60.93017578z m-171.9-175.5c10.8 0 17.90947266 3.6 17.90947266 14.4 0 7.11035156-7.2 14.30947266-18 14.30947266-10.70947266 0-17.81982422-7.2-17.81982422-14.4s7.2-14.30947266 17.91035156-14.30947266z m17.90947266 68.03964844V258c0 7.2-3.6 10.8-10.8 10.8h-14.30947266c-7.2 0-10.8-3.6-10.8-10.8v-136.08017578c0-7.2 3.6-10.8 10.8-10.8h14.4c7.11035156 0 10.70947266 3.6 10.70947266 10.8zM696.59999999 820.31982422c64.43964844 0 118.16982422-50.13017578 114.56982422-118.16982422v-318.77929688a315.36035156 315.36035156 0 0 1-60.83964844 7.1991211c-32.22070313 0-64.44052734-7.2-93.15-18a213.3 213.3 0 0 1-75.15-50.03964844c-21.6-21.6-35.81982422-46.61982422-50.13017578-75.24052734-10.8-28.61982422-18-60.83964844-18-93.15 0-32.21982422 3.6-64.43964844 18-93.05947266 10.71035156-25.11035156 28.61982422-46.53017578 46.52929688-68.04052734H249.03105468c-60.93017578 0-114.66035156 53.73017578-114.66035157 114.57070312V705.75c0 64.35 50.22070313 114.56982422 114.66035157 114.56982422h50.13017578v-61.01982422h347.4V820.31982422h50.12929687z m-443.97070313-497.78964844h218.43105469v57.23964844H252.63017577v-57.23964844z m1e-8 175.5h443.97070312v57.23964844h-443.97070313v-57.23964844z"  horiz-adv-x="1024" />

    
    <glyph glyph-name="tuichu" unicode="&#59213;" d="M501.148282 384.991638a37.542166 37.542166 0 0 0-38.245683 36.710738V859.097394C462.902599 879.435399 480.042805 896 501.148282 896c21.169433 0 38.373594-16.628557 38.373594-36.902606v-437.20315a37.606122 37.606122 0 0 0-38.309638-36.902606zM489.636203-127.295845a497.385736 497.385736 0 0 0-346.001907 138.272851A470.460265 470.460265 0 0 0 38.746472 161.01776a457.413243 457.413243 0 0 0 17.587897 402.794826A483.187507 483.187507 0 0 0 205.223915 728.435305a39.205022 39.205022 0 0 0 53.467207-8.570102 35.943267 35.943267 0 0 0-8.953838-51.35666 408.422954 408.422954 0 0 1-125.609565-139.040323 380.857922 380.857922 0 0 1-47.263477-184.576988c0-106.422768 42.978425-206.449937 121.004734-281.662181a417.760529 417.760529 0 0 1 291.895139-116.655727 418.016352 418.016352 0 0 1 291.89514 116.591771 388.596597 388.596597 0 0 1 120.876822 281.726137 380.538142 380.538142 0 0 1-47.135565 184.576988 408.039218 408.039218 0 0 1-125.801433 138.912411 35.943267 35.943267 0 0 0-9.401531 50.653144l0.63956 0.767472a39.141066 39.141066 0 0 0 53.403252 8.570102 482.547947 482.547947 0 0 0 148.82559-164.558763 456.965551 456.965551 0 0 0 17.651853-402.794826 469.820705 469.820705 0 0 0-104.887824-150.10471 489.902886 489.902886 0 0 0-155.540969-101.178376A503.461556 503.461556 0 0 0 489.636203-127.295845z"  horiz-adv-x="1024" />

    
    <glyph glyph-name="steps" unicode="&#59087;" d="M870.2 537.8c-76.4 0-139.8-55.6-151.8-128.6h-54.6c-12 73-75.4 128.6-151.8 128.6S372.2 482.2 360.2 409.2h-54.4c-12 73-75.4 128.6-151.8 128.6-85 0-154-69-154-154s69-154 154-154c76.2 0 139.4 55.4 151.8 128h54.6c12.4-72.6 75.6-128 151.8-128 76.2 0 139.4 55.4 151.8 128h54.8c12.4-72.6 75.6-128 151.8-128 85 0 154 69 154 154s-69.4 154-154.4 154zM154.2 286c-54 0-98 44-98 98s44 98 98 98 98-44 98-98c-0.2-54-44-98-98-98z m358 0c-54 0-98 44-98 98s44 98 98 98 98-44 98-98c-0.2-54-44-98-98-98z m358 0c-54 0-98 44-98 98s44 98 98 98 98-44 98-98-44-98-98-98z"  horiz-adv-x="1024" />

    
    <glyph glyph-name="ic_fenzubiao_" unicode="&#58964;" d="M25.67 806.43h972.66a2.4 2.4 0 0 0 2.4-2.4v-253.6H23.27V804a2.4 2.4 0 0 0 2.4 2.43zM353.26 516.46h647.46V400.1H353.26zM353.26 370.29h647.46v-116.36H353.26zM353.26 224.11h647.46v-116.36H353.26zM353.26-38.43h591.61a55.85 55.85 0 0 1 55.86 55.85v60.51H353.26zM323.5 516.46H23.27v-499a55.85 55.85 0 0 1 55.86-55.85H323.5z"  horiz-adv-x="1024" />

    
    <glyph glyph-name="diqiu01" unicode="&#58955;" d="M170.809759 91.606627c0.408299-0.191358 0.858554-0.177032 1.281179-0.326435 7.345292-8.55791 14.950504-16.136515 22.99062-24.190959 84.646865-84.646865 197.177801-130.4654 316.8903-130.4654l0.027629 0 0.039909 0c135.493927 0 257.047354 59.774385 339.282287 155.119917 0.613984 0.191358 1.25355-0.026606 1.838881 0.273223 4.143367 2.057869 6.5553 5.750981 7.278777 9.975189 62.295811 77.001745 99.718119 174.799118 99.718119 281.320177 0 103.896278-35.159778 202.329125-99.786681 281.870716-0.845251 4.027733-3.229554 7.665587-7.211239 9.649777-0.407276 0.203638-0.857531 0.169869-1.281179 0.333598-7.345292 8.531304-14.936177 16.906042-22.99062 24.954345C744.25725 784.760476 631.713011 831.376167 512.000512 831.376167c-119.726825 0-232.271064-46.616714-316.91793-131.269719-8.040117-8.04728-15.632025-16.423041-22.99062-24.954345-0.422625-0.156566-0.858554-0.143263-1.281179-0.347924-3.966335-1.989307-6.364965-5.64251-7.209192-9.67536-64.626903-79.549777-99.774401-178.029696-99.761098-281.926997 0-103.903441 35.161824-202.369034 99.761098-281.918811C164.445818 97.25016 166.843424 93.597981 170.809759 91.606627zM177.010995 636.965385c17.090237-22.602787 53.532217-60.59917 120.734782-89.396029-12.961196-44.959981-21.451568-95.17464-22.705118-150.404522L92.09193 397.164834C94.926488 484.897991 124.514363 567.957709 177.010995 636.965385zM489.539964 802.892439c2.562359 0.128937 6.92369 0.143263 6.92369 0.225127l0-266.165012c-69.778226 1.369184-122.847909 12.565177-164.809603 27.318182C380.525108 706.272891 473.567177 789.360238 489.539964 802.892439zM532.864702 802.892439c15.972786-13.527085 108.252493-96.619548 157.12355-238.649332-42.697451-15.066137-95.834672-25.968441-165.613922-27.297716L524.37433 803.124729C524.37433 803.042865 530.302343 803.028539 532.864702 802.892439zM931.893744 397.164834 748.946039 397.164834c-1.255597 55.229882-9.744945 105.444541-22.706141 150.404522 67.188238 28.797883 103.645568 66.793242 120.735805 89.396029C899.47131 567.957709 929.059186 484.897991 931.893744 397.164834zM846.839603 129.617335c-17.132192 22.636556-53.574173 60.524468-120.600729 89.225137 12.961196 44.961004 21.451568 95.181803 22.706141 150.410662l182.947705 0C928.935366 279.448806 897.755226 196.682777 846.839603 129.617335zM532.850375-36.500053c-2.548032-0.10847-8.476045-0.10847-8.476045-0.191358L524.37433 229.459275c69.778226-1.362021 123.652228-12.565177 165.613922-27.324322C641.088542 60.084703 548.768927-23.007761 532.850375-36.500053zM489.553267-36.473447c-15.971763 13.519921-109.041462 96.612385-157.912519 238.635005 42.711777 15.072277 95.04468 25.975605 164.822906 27.311019l0-266.165012C496.463654-36.608523 492.102323-36.608523 489.553267-36.473447zM496.463654 257.384277c-69.778226-1.322112-127.563304-12.524245-172.891675-28.29237-12.156878 42.139749-19.352767 88.966241-20.606317 140.16225l193.497992 0L496.463654 257.384277zM524.37433 257.384277 524.37433 369.254158l196.646706 0c-1.255597-51.194986-10.031471-98.022501-22.175045-140.16225C653.518642 244.860033 594.152557 256.062166 524.37433 257.384277zM721.021036 397.164834 524.37433 397.164834 524.37433 509.034714c69.778226 1.322112 129.144312 12.517081 174.47166 28.29237C710.989565 495.181195 719.765439 448.374146 721.021036 397.164834zM496.463654 509.034714l0-111.86988L302.965661 397.164834c1.25355 51.209312 8.449439 98.016361 20.606317 140.163273C368.90035 521.552819 426.684404 510.356826 496.463654 509.034714zM275.040658 369.254158c1.25355-55.229882 9.743922-105.45068 22.705118-150.410662-67.202565-28.782533-103.658871-66.779939-120.734782-89.388866-52.483328 69.000514-82.071204 152.066371-84.919065 239.799528L275.040658 369.254158zM195.327152 107.048317c12.06171 17.293875 44.592614 55.453986 110.99086 84.673471 37.614689-109.845781 100.006691-185.102788 137.674593-223.220944-86.404905 13.96813-166.063153 54.431703-229.176586 117.531833C208.029452 92.834594 201.583646 99.880057 195.327152 107.048317zM580.031954-31.4572c37.670971 38.159088 100.048647 113.40177 137.64901 223.207641 20.891819-9.15859 37.968753-18.944468 51.597145-28.210505 32.668027-22.174022 50.79385-44.292785 59.202357-56.367799C765.544065 35.103752 678.525176-15.349337 580.031954-31.4572zM828.657498 659.357372c-12.06171-17.281595-44.605917-55.453986-110.99086-84.654029-37.614689 109.832478-100.017948 185.088462-137.674593 223.214804 86.405929-13.975293 166.063153-54.438866 229.16226-117.538997C815.956222 673.585421 822.387701 666.526655 828.657498 659.357372zM443.992605 797.918147c-37.668924-38.139645-100.073206-113.39563-137.688919-223.24141-20.892843 9.138124-37.982056 18.937305-51.611471 28.197202-32.804127 22.282492-50.943252 44.517913-59.310827 56.544831 6.242168 7.141654 12.674671 14.180977 19.434631 20.954241C277.916149 743.472118 357.574397 783.928528 443.992605 797.918147z"  horiz-adv-x="1024" />

    
    <glyph glyph-name="ic_trending_up_px" unicode="&#58953;" d="M682.666667 640l97.92-97.92-208.213334-208-170.666666 170.666667L85.333333 188.373333 145.706667 128l256 256 170.666666-170.666667 268.373334 268.586667L938.666667 384V640z"  horiz-adv-x="1024" />

    
    <glyph glyph-name="ic_trending_down_p" unicode="&#58954;" d="M682.666667 128l97.92 97.92-208.213334 208-170.666666-170.666667L85.333333 579.626667 145.706667 640l256-256 170.666666 170.666667 268.373334-268.586667L938.666667 384v-256z"  horiz-adv-x="1024" />

    
    <glyph glyph-name="T-qingxie" unicode="&#59166;" d="M415.3 832.1l-9.3-45.8c87.3 3.4 121.8-23.7 103.4-81.4l-130-636.1c-6.5-64.5-52.3-93.3-137.7-86.5l-9.3-45.8h375l9.3 45.8c-91.4-6.8-125.5 22-102.3 86.5l130 636.1c1.8 57.7 47.3 84.8 136.6 81.4l9.3 45.8h-375z"  horiz-adv-x="1024" />

    
    <glyph glyph-name="icon-test" unicode="&#58946;" d="M976.59 592.59H812.25L744.3 173.83h197.53v-86.92H728.49L687.41-128h-99.56l39.51 214.91H284.44L237.04-128h-96.4l45.83 214.91H45.83v86.92h158.02l77.43 418.76H88.49v86.92h208.6L338.17 896h97.98l-41.09-216.49h333.43L766.42 896h101.14l-36.35-216.49h146.96v-86.92h-1.58zM643.16 173.83l72.69 418.76H382.42l-80.59-418.76h341.33z"  horiz-adv-x="1024" />

    
    <glyph glyph-name="Excelbiao" unicode="&#58947;" d="M173 459.98h68.97q10.52 1.17 19.29 8.18 8.77 7.02 12.27 17.54l54.94 161.31h78.32l-61.95-185.86q-7.01-22.21-22.21-38.57 15.2-16.37 22.21-38.58l65.46-217.42h-78.32l-58.45 194.04q-3.5 11.69-12.86 18.12-9.35 6.43-22.2 6.43H173q-11.68-1.17-19.87-7.6-8.19-6.43-12.86-16.95L75.98 166.58H0l70.14 218.59q8.18 22.21 22.21 37.41-15.2 16.36-22.21 37.4L5.84 647.01h75.99l58.44-161.31q4.68-10.52 12.86-17.54 8.19-7.01 19.87-8.18zM474.59 896h74.82v-730.59h-74.82V896zM1024 628.31v-74.81H722.41q-15.2 0-25.72-11.11-10.52-11.1-11.69-26.31v-40.91q1.17-16.37 11.69-26.89t25.72-10.52h189.37q47.93-1.17 79.49-32.73 31.56-31.56 32.73-79.49v-49.09q-1.17-47.93-32.73-79.49-31.56-31.56-79.49-32.73H610.19v74.81h301.59q16.37 0 26.89 10.52t10.52 26.89v49.09q0 16.37-10.52 26.89t-26.89 10.52H722.41q-47.93 1.17-79.49 32.73-31.56 31.56-32.73 79.49v40.91q1.17 47.93 32.73 79.49 31.56 31.56 79.49 32.73H1024z"  horiz-adv-x="1024" />

    
    <glyph glyph-name="ABC" unicode="&#58948;" d="M574.4 793.6V-128H451.2V793.6H102.4V896h819.2v-102.4H574.4z"  horiz-adv-x="1024" />

    
    <glyph glyph-name="shujukubiao" unicode="&#58949;" d="M555.07 644.79V775.18q0 58.61 47.85 95.7Q636.41 896 678.28 896H896q59.81 0 98.09-43.07Q1024 817.05 1024 768v-74.17q0-51.44-37.08-88.52 35.88-35.89 37.08-86.13v-98.1q0-50.24-35.89-88.52-43.06-39.48-105.27-39.48H679.48q-59.82 1.2-92.12 38.88-32.29 37.68-32.29 97.5V644.79zM354.09 294.28H0V892.41h357.68q59.82-1.2 95.1-36.48 35.29-35.28 36.49-96.3v-337.35q-1.2-53.83-40.07-90.91-38.88-37.09-95.11-37.09zM76.56 370.84h277.53q27.52 0 43.07 14.95t15.55 36.48V760.81q0 55.03-55.03 55.03H76.56v-445.01z m555.07 197.38v-138.76q0-59.82 47.85-59.82h203.36q32.3 0 50.24 17.95 14.36 14.35 14.36 33.49v98.1q0 17.94-16.75 34.09-16.75 16.15-40.67 14.95H631.63z m0 77.76H896q20.34-1.19 35.89 13.16 15.55 14.36 15.55 34.69V768q0 20.34-12.56 35.89T896 819.44H678.28q-15.55 0-28.71-9.57-17.94-13.16-17.94-34.69v-129.2z"  horiz-adv-x="1024" />

    
    <glyph glyph-name="shijian2" unicode="&#58950;" d="M546.13 418.13H716.8q14.93 0 24.53-9.6 9.6-9.6 9.6-24.53 0-14.93-9.6-24.53-9.6-9.6-24.53-9.6H512q-14.93 0-24.53 9.6-9.6 9.6-9.6 24.53V725.33q0 14.94 9.6 24.54t24.53 9.6q14.93 0 24.53-9.6 9.6-9.6 9.6-24.54v-307.2zM512-128q-217.6 5.33-362.13 149.87Q5.34 166.4 0.01 384q5.33 217.6 149.86 362.13T512 895.99q217.6-5.33 362.13-149.86T1024 384q-5.33-217.6-149.87-362.13Q729.6-122.66 512-128z m0 68.27q188.8 4.26 314.13 129.6Q951.47 195.21 955.73 384q-4.26 188.8-129.6 314.13Q700.79 823.47 512 827.73q-188.8-4.26-314.13-129.6Q72.53 572.8 68.27 384q4.26-188.8 129.6-314.13Q323.2-55.47 512-59.73z m0 136.53q14.93 0 24.53-9.6 9.6-9.6 9.6-24.53v-34.14q0-14.93-9.6-24.53-9.6-9.6-24.53-9.6-14.93 0-24.53 9.6-9.6 9.6-9.6 24.53v34.14q0 14.93 9.6 24.53 9.6 9.6 24.53 9.6zM204.8 384q0-14.93-9.6-24.53-9.6-9.6-24.53-9.6h-34.14q-14.93 0-24.53 9.6-9.6 9.6-9.6 24.53 0 14.93 9.6 24.53 9.6 9.6 24.53 9.6h34.14q14.93 0 24.53-9.6 9.6-9.6 9.6-24.53z m716.8 0q0-14.93-9.6-24.53-9.6-9.6-24.53-9.6h-34.14q-14.93 0-24.53 9.6-9.6 9.6-9.6 24.53 0 14.93 9.6 24.53 9.6 9.6 24.53 9.6h34.14q14.93 0 24.53-9.6 9.6-9.6 9.6-24.53z"  horiz-adv-x="1024" />

    
    <glyph glyph-name="Sqlbiao" unicode="&#58951;" d="M877.71 643.43v-478.86h-73.14V317.71q-19.43-6.85-42.28-6.85H577.14Q528 312 495.43 342.29q-32.57 30.28-33.72 74.85V643.43q1.15 44.57 33.72 74.85 32.57 30.28 81.71 31.43h185.15q49.14-1.14 81.71-31.43 32.57-30.28 33.71-74.85zM950.86 896H1024v-731.43h-73.14V896z m-376-219.43q-17.15 0-28.57-10.28-11.43-10.28-11.43-25.15v-221.71q0-14.86 11.43-25.15Q557.71 384 574.86 384h190.85q16 0 27.43 10.28 11.43 10.29 11.43 25.15V641.14q0 14.86-11.43 25.15-11.43 10.28-28.57 10.28H574.86z m-169.15 73.14v-70.85H118.86q-17.15 0-28.01-10.29Q80 658.29 78.86 643.43v-38.86Q80 589.71 90.85 580q10.86-9.71 28.01-10.86h168q50.28 0 84-30.28 33.71-30.29 34.85-74.86v-46.86q-1.14-45.71-34.85-75.43-33.72-29.71-84-30.85H0v70.85h286.86q17.14 0 28 10.29 10.85 10.29 12 25.14V464q-1.15 14.86-12 24.58-10.86 9.71-28 10.85h-168q-50.29 0-84 30.29Q1.15 560 0.01 604.57v38.86q1.14 45.71 34.85 75.42 33.71 29.72 84 30.86h286.85z"  horiz-adv-x="1024" />

    
    <glyph glyph-name="normal12" unicode="&#58952;" d="M248.17 560.85l34.79 135.68q24.36 88.14 92.78 143.22Q444.16 894.84 534.61 895.99q78.86 0 148.44-20.87-1.16-47.55-0.58-41.17 0.58 6.38 0.58-33.05-73.06 17.39-148.44 20.87-64.94-1.16-113.64-40.59-48.71-39.43-66.11-102.05l-30.15-118.29h104.37q6.96 0 11.02-4.64t4.06-10.43v-44.07q0-6.96-4.06-11.02t-11.02-4.06H306.16L185.55 9.99q-10.44-38.27-40.01-60.88T77.7-73.5H0v74.21h77.7q12.76 0 22.61 7.54 9.86 7.54 13.34 20.3l115.97 458.07H88.14q-5.8 0-10.44 4.06t-4.64 11.02v44.07q0 5.79 4.64 10.43t10.44 4.64h160.03z m526.5-149.6l119.45 139.16q9.27 10.44 23.19 10.44h98.57q6.96-1.16 8.12-8.12v-59.14q-1.16-6.96-8.12-6.96h-64.94q-13.92 0-22.03-10.44l-118.29-138 81.18-168.15q8.11-16.24 26.67-17.4h46.39q6.95 0 8.11-6.95v-59.15q-1.16-6.96-8.11-8.12h-92.78q-18.55 1.16-26.67 17.4l-88.14 180.91-160.03-187.87q-9.28-9.28-22.04-10.44H448.8q-6.96 1.16-6.96 8.12v59.15q0 6.95 6.96 6.95h91.61q13.92 1.16 23.2 10.44l158.87 186.71-59.14 119.45q-8.12 16.23-26.67 17.39H526.5q-6.96 0-8.12 6.96v59.14q1.16 6.96 8.12 8.12h157.71q17.4-1.16 26.68-17.39l63.78-132.21z"  horiz-adv-x="1024" />

    
    <glyph glyph-name="kongjianwenbenliebiao" unicode="&#58940;" d="M289.92 504l614.656 0 0-85.312-614.656 0 0 85.312ZM120.128 682.688l482.624 0 0-85.312-482.624 0 0 85.312ZM289.92 333.376l614.656 0 0-85.312-614.656 0 0 85.312ZM289.92 162.688l614.656 0 0-85.312-614.656 0 0 85.312ZM120.128 504l85.312 0 0-85.312-85.312 0 0 85.312ZM120.128 333.376l85.312 0 0-85.312-85.312 0 0 85.312ZM120.128 162.688l85.312 0 0-85.312-85.312 0 0 85.312ZM1024-64 0-64 0 832l1024 0L1024-64zM42.688-21.312l938.688 0L981.376 789.312 42.688 789.312 42.688-21.312z"  horiz-adv-x="1024" />

    
    <glyph glyph-name="kongjianwenbenxiala" unicode="&#58941;" d="M1025.792-69.248 1.792-69.248 1.792 826.752 615.872 826.752 615.872 784.064 44.48 784.064 44.48-26.624 983.104-26.624 983.104 659.2 1025.792 659.2ZM291.584 505.408l614.656 0 0-85.312-614.656 0 0 85.312ZM121.792 684.096l482.624 0 0-85.312-482.624 0 0 85.312ZM291.584 334.72l614.656 0 0-85.312-614.656 0 0 85.312ZM291.584 164.096l614.656 0 0-85.312-614.656 0 0 85.312ZM121.792 505.408l85.312 0 0-85.312-85.312 0 0 85.312ZM121.792 334.72l85.312 0 0-85.312-85.312 0 0 85.312ZM121.792 164.096l85.312 0 0-85.312-85.312 0 0 85.312ZM989.248 827.52 824.832 580.928 660.416 827.52Z"  horiz-adv-x="1026" />

    
    <glyph glyph-name="kongjian_xialashu" unicode="&#58942;" d="M0 881.408h420.288v-250.304H0V881.408zM1024 385.472V512.128H420.288v-44.736h-240.96V631.104H142.08v-700.032h37.248v0.256h240.96v-44.736H1024V13.248H420.288v-44.672h-240.96V182.912h240.96v-44.736H1024v126.72H420.288v-44.736h-240.96V430.144h240.96v-44.672H1024zM1023.616 876.736L863.104 636.032 702.528 876.736z"  horiz-adv-x="1024" />

    
    <glyph glyph-name="shuliebiao" unicode="&#59456;" d="M153.6 384v-256h153.6v-51.2H102.4V640H51.2V793.6h153.6v-153.6H153.6v-204.8h153.6v-51.2H153.6z m153.6 409.6h614.4v-153.6H307.2V793.6z m102.4-307.2h512v-153.6H409.6V486.4z m0-307.2h512v-153.6H409.6v153.6z"  horiz-adv-x="1024" />

    
    <glyph glyph-name="nianfen" unicode="&#58943;" d="M380.342857 837.485714m28.379429 0l235.812571 0q28.379429 0 28.379429-28.379428l0-1.755429q0-28.379429-28.379429-28.379428l-235.812571 0q-28.379429 0-28.379429 28.379428l0 1.755429q0 28.379429 28.379429 28.379428ZM881.225143 837.485714H819.2a29.257143 29.257143 0 0 1-29.257143-29.257143 29.257143 29.257143 0 0 1 29.257143-29.257142h62.902857A113.517714 113.517714 0 0 0 994.742857 665.453714v-621.421714A113.517714 113.517714 0 0 0 881.225143-69.485714H172.032A113.517714 113.517714 0 0 0 58.514286 44.032V665.453714A113.517714 113.517714 0 0 0 172.032 778.971429H234.057143a29.257143 29.257143 0 0 1 29.257143 29.257142 29.257143 29.257143 0 0 1-29.257143 29.257143H172.032A172.032 172.032 0 0 1 0 665.453714v-621.421714A172.032 172.032 0 0 1 172.032-128h709.193143A172.032 172.032 0 0 1 1053.257143 44.032V665.453714A172.032 172.032 0 0 1 881.225143 837.485714zM321.828571 720.457143a29.257143 29.257143 0 0 1 29.257143 29.257143V866.742857a29.257143 29.257143 0 0 1-58.514285 0v-117.028571a29.257143 29.257143 0 0 1 29.257142-29.257143zM731.428571 720.457143a29.257143 29.257143 0 0 1 29.257143 29.257143V866.742857a29.257143 29.257143 0 0 1-58.514285 0v-117.028571a29.257143 29.257143 0 0 1 29.257142-29.257143zM492.982857 235.958857l-98.304 202.752a23.113143 23.113143 0 0 0 20.772572 33.060572h13.458285a22.820571 22.820571 0 0 0 21.065143-13.750858l38.912-87.771428c11.995429-29.257143 23.113143-55.881143 36.278857-85.430857H526.628571c12.873143 29.257143 25.453714 56.466286 36.864 85.430857l39.204572 87.771428a23.113143 23.113143 0 0 0 21.357714 13.750858h11.702857a23.113143 23.113143 0 0 0 20.772572-33.060572l-98.596572-202.752a24.868571 24.868571 0 0 1-2.340571-10.24V106.057143a23.113143 23.113143 0 0 0-23.113143-23.113143h-14.921143a23.113143 23.113143 0 0 0-23.113143 23.113143v119.661714a24.576 24.576 0 0 1-1.462857 10.24zM83.968 675.401143m29.257143 0l826.806857 0q29.257143 0 29.257143-29.257143l0 0q0-29.257143-29.257143-29.257143l-826.806857 0q-29.257143 0-29.257143 29.257143l0 0q0 29.257143 29.257143 29.257143Z"  horiz-adv-x="1053" />

    
    <glyph glyph-name="rili" unicode="&#59011;" d="M565.474343 317.447071h67.128068a16.497576 16.497576 0 0 1 17.066458 15.359812V406.192653a17.066458 17.066458 0 0 1-14.79093 17.63534H565.474343a16.497576 16.497576 0 0 1-17.066458-15.359812v-73.38577a15.928694 15.928694 0 0 1 14.79093-17.63534z m170.66458 0h67.128069a15.928694 15.928694 0 0 1 17.066458 15.359812V406.192653a17.066458 17.066458 0 0 1-14.79093 17.63534h-72.248006a16.497576 16.497576 0 0 1-17.066458-15.359812v-73.38577a15.928694 15.928694 0 0 1 14.79093-17.63534z m-335.640342 0h64.283659a15.928694 15.928694 0 0 1 17.066458 15.359812V406.192653a17.066458 17.066458 0 0 1-14.79093 17.63534H398.223054a17.066458 17.066458 0 0 1-17.066459-15.359812v-73.38577a15.928694 15.928694 0 0 1 14.790931-17.63534H398.223054z m335.640342-252.014697h67.128069a16.497576 16.497576 0 0 1 17.066458 15.359812V156.453483a16.497576 16.497576 0 0 1-14.79093 17.63534h-72.248006a15.928694 15.928694 0 0 1-17.066458-15.359812v-71.110242a16.497576 16.497576 0 0 1 14.79093-17.63534z m-170.66458 0h67.128068a17.066458 17.066458 0 0 1 17.066458 15.359812V156.453483a17.066458 17.066458 0 0 1-14.79093 17.63534H565.474343a15.928694 15.928694 0 0 1-17.066458-15.359812v-71.110242a16.497576 16.497576 0 0 1 14.79093-17.63534zM227.558473 65.432374h69.403596a17.066458 17.066458 0 0 1 17.066458 15.359812V156.453483a17.066458 17.066458 0 0 1-14.79093 17.63534H227.558473a15.928694 15.928694 0 0 1-17.066458-15.359812v-71.110242a16.497576 16.497576 0 0 1 17.066458-22.186395z m0 252.014697h69.403596a16.497576 16.497576 0 0 1 17.066458 15.359812V406.192653a17.066458 17.066458 0 0 1-14.79093 17.63534H227.558473a16.497576 16.497576 0 0 1-17.066458-15.359812v-73.38577a15.928694 15.928694 0 0 1 14.79093-17.63534z m170.664581-252.014697h66.559186a16.497576 16.497576 0 0 1 17.066458 15.359812V156.453483a16.497576 16.497576 0 0 1-14.79093 17.63534H398.223054a15.928694 15.928694 0 0 1-17.066459-15.359812v-73.38577a16.497576 16.497576 0 0 1 17.066459-19.910867zM903.390213-127.987485H120.608669A118.896325 118.896325 0 0 0 0.005698-7.953396V716.80219a119.465207 119.465207 0 0 0 120.602971 118.327443h782.781544A119.465207 119.465207 0 0 0 1023.993183 716.80219v-724.755586A119.465207 119.465207 0 0 0 903.390213-127.987485zM120.608669 756.055044a39.821736 39.821736 0 0 1-40.390618-39.252854v-724.755586a40.390617 40.390617 0 0 1 40.390618-39.821736h782.781544a40.390617 40.390617 0 0 1 40.390617 39.821736V716.80219a39.821736 39.821736 0 0 1-40.390617 39.252854H120.608669zM66.564885 604.163567h890.869111v-83.056763H66.564885zM284.446666 688.358093a40.390617 40.390617 0 0 0-39.821735 41.528382V856.178264a39.821736 39.821736 0 0 0 79.643471 0v-126.291789a40.390617 40.390617 0 0 0-39.821736-41.528382z m430.643626 0a40.959499 40.959499 0 0 0-39.821736 41.528382V856.178264a40.390617 40.390617 0 0 0 80.212353 0v-126.291789a40.959499 40.959499 0 0 0-39.821735-41.528382z"  horiz-adv-x="1025" />

    
    <glyph glyph-name="yuefen" unicode="&#58944;" d="M380.342857 837.485714m28.379429 0l235.812571 0q28.379429 0 28.379429-28.379428l0-1.755429q0-28.379429-28.379429-28.379428l-235.812571 0q-28.379429 0-28.379429 28.379428l0 1.755429q0 28.379429 28.379429 28.379428ZM881.225143 837.485714H819.2a29.257143 29.257143 0 0 1-29.257143-29.257143 29.257143 29.257143 0 0 1 29.257143-29.257142h62.902857A113.517714 113.517714 0 0 0 994.742857 665.453714v-621.421714A113.517714 113.517714 0 0 0 881.225143-69.485714H172.032A113.517714 113.517714 0 0 0 58.514286 44.032V665.453714A113.517714 113.517714 0 0 0 172.032 778.971429H234.057143a29.257143 29.257143 0 0 1 29.257143 29.257142 29.257143 29.257143 0 0 1-29.257143 29.257143H172.032A172.032 172.032 0 0 1 0 665.453714v-621.421714A172.032 172.032 0 0 1 172.032-128h709.193143A172.032 172.032 0 0 1 1053.257143 44.032V665.453714A172.032 172.032 0 0 1 881.225143 837.485714zM321.828571 720.457143a29.257143 29.257143 0 0 0-29.257142 29.257143V866.742857a29.257143 29.257143 0 0 0 58.514285 0v-117.028571a29.257143 29.257143 0 0 0-29.257143-29.257143zM731.428571 720.457143a29.257143 29.257143 0 0 0-29.257142 29.257143V866.742857a29.257143 29.257143 0 0 0 58.514285 0v-117.028571a29.257143 29.257143 0 0 0-29.257143-29.257143zM83.968 675.401143m29.257143 0l826.806857 0q29.257143 0 29.257143-29.257143l0 0q0-29.257143-29.257143-29.257143l-826.806857 0q-29.257143 0-29.257143 29.257143l0 0q0 29.257143 29.257143 29.257143ZM398.774857 471.771429h25.161143a26.624 26.624 0 0 0 24.868571-17.261715l64.658286-178.761143c9.069714-25.746286 16.969143-52.077714 26.038857-78.409142h2.633143c8.777143 26.331429 16.091429 52.662857 25.161143 78.409142l63.780571 178.468572a26.624 26.624 0 0 0 24.868572 17.554286h25.746286a26.331429 26.331429 0 0 0 26.331428-26.331429v-334.994286a26.331429 26.331429 0 0 0-26.331428-26.331428h-4.096a26.331429 26.331429 0 0 0-26.624 26.331428V275.748571c0 34.816 4.973714 84.845714 7.899428 120.246858h-2.048l-31.012571-89.526858-61.147429-167.643428a26.331429 26.331429 0 0 0-24.868571-17.261714 26.331429 26.331429 0 0 0-24.868572 17.261714l-61.44 167.643428-30.72 89.526858h-2.048c2.633143-35.401143 7.314286-85.430857 7.314286-120.246858v-165.302857a26.331429 26.331429 0 0 0-26.331429-26.331428h-2.048a26.331429 26.331429 0 0 0-26.331428 26.331428V445.44a26.331429 26.331429 0 0 0 25.453714 26.331429z"  horiz-adv-x="1053" />

    
    <glyph glyph-name="riqiqishu" unicode="&#58945;" d="M831.97 831.91H704.03V863.955a32.045 32.045 0 0 1-64.09 0V831.91H384.06V863.955a32.045 32.045 0 0 1-64.09 0V831.91H191.312A191.312 191.312 0 0 1 0 645.86v-586.851a191.312 191.312 0 0 1 191.312-186.051H831.97a191.312 191.312 0 0 1 191.313 191.312v575.85A191.312 191.312 0 0 1 831.97 831.91z m127.94-767.88a128.18 128.18 0 0 0-127.94-127.94H191.312a127.94 127.94 0 0 0-127.94 127.94V480.135H959.91z m0 479.955H64.09v95.656A127.94 127.94 0 0 0 191.312 768.06h127.94v-63.372a32.045 32.045 0 0 1 64.09 0V768.06h255.88v-63.372a32.045 32.045 0 0 1 64.09 0V768.06h127.94a128.18 128.18 0 0 0 127.94-127.94zM296.295 274.234H186.53a36.589 36.589 0 0 0 0 73.177h109.765a36.589 36.589 0 1 0 0-73.177z m292.47 0H442.41a36.589 36.589 0 0 0 0 73.177h146.354a36.589 36.589 0 0 0 0-73.177z m255.88 0H735.118a36.589 36.589 0 1 0 0 73.177h109.527a36.589 36.589 0 1 0 0-73.177z m-548.35-219.291H186.53a36.589 36.589 0 1 0 0 73.177h109.765a36.589 36.589 0 0 0 0-73.177z m292.47 0H442.41a36.589 36.589 0 0 0 0 73.177h146.354a36.589 36.589 0 0 0 0-73.177z m255.88 0H735.118a36.589 36.589 0 1 0 0 73.177h109.527a36.589 36.589 0 1 0 0-73.177z"  horiz-adv-x="1024" />

    
    <glyph glyph-name="shijian" unicode="&#59084;" d="M512 896a512 512 0 1 1 512-512 512 512 0 0 1-512 512z m0-944.274286A432.274286 432.274286 0 1 0 944.274286 384 433.005714 433.005714 0 0 0 512-48.274286zM551.497143 403.017143v219.428571a39.497143 39.497143 0 0 1-78.994286 0v-236.251428a38.034286 38.034286 0 0 1 9.508572-25.6l166.034285-189.44a35.108571 35.108571 0 0 1 54.857143 0 40.96 40.96 0 0 1 4.388572 55.588571z"  horiz-adv-x="1024" />

    
    <glyph glyph-name="tupian" unicode="&#58938;" d="M402.845 382.016c-15.689 0-30.308 3.097-43.854 9.284-13.547 6.188-25.308 14.607-35.296 25.247-9.982 10.64-17.944 23.021-23.886 37.131-5.948 14.11-8.916 29.086-8.916 44.926 0 15.846 2.968 30.821 8.916 44.926 5.942 14.116 13.904 26.368 23.886 36.763 9.987 10.4 21.749 18.691 35.296 24.879s28.165 9.279 43.854 9.279c15.21 0 29.588-3.091 43.135-9.279s25.314-14.479 35.296-24.879c9.982-10.395 17.944-22.647 23.886-36.763 5.937-14.105 8.916-29.08 8.916-44.926 0-15.84-2.979-30.815-8.916-44.926-5.942-14.11-13.904-26.491-23.886-37.131s-21.749-19.059-35.296-25.247c-13.548-6.188-27.926-9.284-43.135-9.284z m557.587-418.085H67.72V800.848h892.712v-836.917z m-89.131 744.092h-713.74v-574.036c8.553 12.872 18.061 25.744 28.522 38.615 10.456 12.866 21.392 24.505 32.802 34.899 11.404 10.4 23.171 18.937 35.296 25.621 12.119 6.684 24.354 10.026 36.713 10.026 14.741 0 27.456-1.11 38.147-3.342 10.701-2.226 20.209-5.072 28.528-8.542 8.313-3.465 16.041-7.298 23.171-11.51 7.125-4.207 14.853-8.046 23.171-11.51 8.319-3.459 17.709-6.31 28.165-8.537 10.456-2.226 23.054-3.342 37.795-3.342 14.73 0 27.451 4.575 38.147 13.737 10.685 9.161 20.555 20.672 29.588 34.531 9.033 13.865 18.061 28.712 27.099 44.557 9.028 15.846 19.249 30.693 30.654 44.557 11.41 13.865 24.951 25.375 40.641 34.531s34.704 13.737 57.044 13.737c19.015 0 37.315-6.059 54.902-18.195 17.592-12.13 33.873-27.847 48.848-47.158 14.97-19.305 28.756-40.842 41.349-64.604 12.598-23.763 23.651-47.029 33.159-69.805v525.77z m0 0"  horiz-adv-x="1024" />

    
    <glyph glyph-name="wenben" unicode="&#59010;" d="M100.571429 822.857143L73.142857 603.428571h27.428572c0 76.8 60.269714 137.069714 137.069714 137.069715h192v-699.245715a67.949714 67.949714 0 0 0-68.534857-68.608H292.571429V-54.857143h438.637714v27.501714h-68.461714a67.876571 67.876571 0 0 0-68.608 68.534858V740.571429h192c76.726857 0 137.069714-60.416 137.069714-137.142858h27.355428l-27.355428 219.428572H100.571429z"  horiz-adv-x="1024" />

    
    <glyph glyph-name="web" unicode="&#58939;" d="M983.806 667.807c19.143 71.103 27.347 207.84-98.45 226.982-103.92 10.94-224.249-54.694-287.147-98.45-19.144 2.735-43.756 5.47-65.634 5.47-164.084 2.734-270.738-51.96-363.72-172.289-32.816-43.755-62.898-117.593-73.837-199.635 46.49 79.307 188.697 224.248 336.372 281.677 0 0-226.983-161.349-336.372-391.066v-2.735c-5.47-10.939-10.939-19.143-16.408-32.817-109.39-270.738-19.143-388.331 62.899-407.475 76.572-19.143 183.226 16.409 268.003 109.39 144.94-32.817 289.882 5.47 341.841 32.816C852.54 74.37 923.642 175.555 940.05 276.74H663.842s-13.674-87.511-161.349-87.511c-136.737 0-144.94 158.614-144.94 158.614h590.701s10.939 172.288-73.838 287.147c-49.225 62.899-112.124 120.328-199.635 150.41 27.347 19.143 73.838 51.96 114.859 60.164 76.572 19.143 125.797 8.204 158.614-49.225 43.756-76.572-24.612-251.595-24.612-251.595s38.286 49.225 60.164 123.063z m-612.58-672.744c-117.594-95.716-213.31-84.777-251.595-27.347-32.817 51.96-38.287 139.47 0 262.534 19.143-46.49 46.49-92.981 87.511-134.002 49.225-49.225 106.655-82.042 164.084-101.185z m-5.47 494.986s5.47 114.859 128.533 123.063c109.389 10.939 164.084-38.286 180.492-128.532l-309.025 5.47z"  horiz-adv-x="1024" />

    
    <glyph glyph-name="fsux_tubiao_zhuzhuangtu" unicode="&#58880;" d="M497.777778 753.77777801l0-142.22222202-312.888889 0L184.888889 753.77777801zM839.111111 554.666667l0-142.222223-654.222222 0 0 142.222223zM611.555556 355.555556l0-142.222223-426.666667 0 0 142.222223zM412.444444 156.44444399999998l0-142.222222-227.555555-1e-8 0 142.22222202z"  horiz-adv-x="1024" />

    
    <glyph glyph-name="fsux_tubiao_duijizhuzhuangtu" unicode="&#58881;" d="M129.292929 368.398222h147.105616v-323.635717H129.292929zM335.614707 766.249374h147.106909v-676.692041H335.614707zM541.191758 486.085818h147.105616v-441.323313H541.191758zM129.292929 604.661657h147.104324v-235.373899H129.292929zM335.616 486.575838h147.105616V45.252525H335.616zM540.902141 554.640808H688.006465v-235.373899H540.902141zM745.015596 484.822626H892.121212v-441.323313H745.015596zM745.015596 564.984242h147.104323v-235.373899H745.015596z"  horiz-adv-x="1024" />

    
    <glyph glyph-name="fsux_tubiao_duijizhuzhuangtu1" unicode="&#58882;" d="M496.398222 766.707071l0-147.105616-323.635717 0L172.762505 766.707071zM894.249374 560.385293l0-147.106909-676.692041-1e-8L217.557333 560.385293zM614.085818 354.80824199999995l0-147.105616-441.323313 0L172.762505 354.80824199999995zM732.661657 766.707071l0-147.104324-235.37389899 0L497.287758 766.707071zM614.575838 560.384l0-147.10561601L173.252525 413.278384 173.252525 560.384zM682.640808 355.09785899999997L682.640808 207.99353499999995l-235.373899 0L447.266909 355.09785899999997zM612.822626 150.98440400000004L612.822626 3.878787999999986l-441.323313 0L171.499313 150.98440400000004zM692.984242 150.98440400000004l1e-8-147.104323-235.37389901 0L457.610343 150.98440401000005z"  horiz-adv-x="1024" />

    
    <glyph glyph-name="fsux_tubiao_bingtu" unicode="&#58883;" d="M546.747475 636.3345449999999c145.454545-18.182465 219.636364-124.36299 219.636363-253.090909 0-33.454545-5.091556-65.454545-16.727919-94.545454l126.545455-73.453899c23.272727 50.907798 34.909091 108.36299 34.909091 167.999353 0 209.454545-146.182465 381.818828-364.364283 400v-146.909091z m0 0M474.020202 130.15272700000003c-109.090909 18.182465-217.453899 124.364283-217.453899 253.090909 0 128.727919 108.36299 234.908444 217.453899 253.090909V783.243636C292.20202 765.062465 111.838384 592.698182 111.838384 383.24363600000004s180.363636-381.818828 362.181818-400V130.15272700000003z m0 0M712.565657 225.42610100000002c-40.000646-50.907798-93.090909-85.091556-165.818182-95.273374V-16.756363999999962c109.090909 10.909737 224.727919 74.909737 290.182464 168.727273l-124.364282 73.455192z m0 0"  horiz-adv-x="1024" />

    
    <glyph glyph-name="fsux_tubiao_juxingshutu" unicode="&#58884;" d="M89.13729946 676.71846544h476.68394307v-380.87030293H89.13729946zM90.15231983 261.69742673999997h476.6839416v-216.66949955H90.15231983zM605.21656199 425.89632713h343.41551774v-380.87030292H605.21656199zM605.21656199 676.71846544h346.67386317v-216.67140254H605.21656199z"  horiz-adv-x="1024" />

    
    <glyph glyph-name="fsux_tubiao_qipaotu" unicode="&#58885;" d="M383.32864583 552.75c0-134.6203125 109.125-243.759375 243.7453125-243.759375C761.70833333 308.990625 870.83333333 418.1296875 870.83333333 552.75S761.70833333 796.4953125 627.07395833 796.4953125c-134.60625 0-243.7453125-109.125-243.7453125-243.7453125zM120.83802083 215.25c0-93.1921875 75.5578125-168.75 168.75-168.75s168.75 75.5578125 168.75 168.75-75.5578125 168.75-168.75 168.75-168.75-75.5578125-168.75-168.75zM608.34270833 159a112.5 112.5 0 1 1 225 0 112.5 112.5 0 0 1-225 0z"  horiz-adv-x="1024" />

    
    <glyph glyph-name="fsux_tubiao_pubutu" unicode="&#58886;" d="M336.161616 693.010101h147.105616v-323.635717H336.161616zM129.666586 693.010101h147.105616v-676.69204H129.666586zM745.474586 501.60097h147.105616v-441.323313H745.474586zM541.191758 762.39903h147.104323v-235.373899H541.191758z"  horiz-adv-x="1024" />

    
    <glyph glyph-name="fsux_tubiao_shuangzhoutu" unicode="&#58887;" d="M836.36703 99.616323H971.170424V884.363636H836.36703v-784.747313z m-240.716283 0H730.452848V532.914424H595.650747v-433.298101z m-240.722747 0h134.803394v544.025859H354.928v-544.025859z m-240.717576 0H249.013818V383.666424H114.210424v-284.050101z m0 0M932.655354 764.006141c4.813576 0 9.63103-4.818747 14.444606-4.818747 14.444606-9.625859 19.258182-28.88404 9.625858-43.328647L942.286384 701.414141c-62.590707-28.882747-129.989818-48.140929-192.575354-72.211394-28.889212-14.444606-48.146101-33.702788-62.590707-57.773252-24.070465-48.146101-48.140929-101.105778-72.212687-154.060283-9.63103-19.258182-24.075636-38.516364-38.51507-52.959677-43.332525-38.515071-101.105778-57.773253-158.879031-52.959676-19.256889 0-43.327354 9.63103-62.585535 14.444606-9.625859 4.813576-19.256889 9.625859-33.701495 14.444606-62.586828 28.88404-134.803394 0-168.499717-62.590707-14.444606-24.070465-24.076929-52.954505-33.702788-77.030142 0-4.813576-4.813576-9.625859-9.63103-14.439434-9.625859-4.818747-19.258182-9.63103-28.884041-4.818748-9.63103 0-19.256889 9.63103-24.070464 19.258182-4.818747 9.63103-4.818747 19.258182 0 24.075637 9.625859 24.070465 24.070465 52.954505 33.696323 77.030141 9.632323 19.258182 24.075636 38.515071 38.515071 52.954505 43.333818 43.333818 96.288323 62.592 158.87903 57.773253 24.070465 0 43.328646-9.625859 67.399111-19.256889 9.63103-4.813576 19.258182-9.627152 33.702788-14.439435 14.443313-4.818747 28.882747-9.63103 43.327353-9.63103 38.515071-4.813576 72.217859 9.63103 101.101899 33.701495 9.63103 9.625859 19.256889 24.070465 28.88792 38.515071 24.070465 48.142222 48.140929 101.100606 72.216565 154.060283 14.439434 28.88404 38.515071 57.773253 67.399111 77.031434 9.63103 4.812283 24.070465 14.443313 33.701495 19.256889l187.763071 72.217858h9.627152"  horiz-adv-x="1024" />

    
    <glyph glyph-name="fsux_tubiao_kxiantu" unicode="&#58888;" d="M448.469333 846.947556h126.03992v-41.837899h-126.03992zM498.782384 825.765495h25.420283v-873.283232h-25.420283zM448.469333-36.926061000000004h126.041212v-41.839192h-126.041212v41.839192zM111.656081 762.745535h126.041212v-41.839192H111.656081v41.839192z m0 0M162.495354 755.330586h24.888888v-679.990303H162.495354zM111.656081 89.11385900000005h126.041212v-41.836606H111.656081v41.836606z m673.631677 631.262383h126.039919v-41.837899h-126.039919v41.837899z m0 0M835.595636 710.31596h25.41899v-558.712243h-25.41899zM785.287758 173.315879h126.039919v-41.836606h-126.039919v41.836606zM69.818182 493.715394h210.241939v-329.399596H69.818182v329.399596z m336.288323 55.074909h210.241939v-494.100687H406.106505V548.790303z m336.813253-55.074909h210.241939v-219.778586H742.919758V493.715394z m0 0M69.818182 658.416485h210.241939v-164.701091H69.818182V658.416485z m336.288323 54.546101h210.241939v-164.702384H406.106505V712.962586z m336.813253-109.62101h210.241939v-109.626182H742.919758v109.626182z m0 0"  horiz-adv-x="1024" />

    
    <glyph glyph-name="fsux_tubiao_loudoutu" unicode="&#58889;" d="M240.9273349 475.35069437l49.85608177-184.09278228h498.57954552l49.85982734 184.09278228H240.9273349z m-1e-8-1e-8M490.21523488 15.119676150000032H589.93114398l149.57573644 184.09278155H340.64324399l149.57199088-184.09278155z m-1e-8 0M938.93963503 751.4851847699999l-49.85982735-184.09184517H191.06750757L141.21142578 751.4851847699999h797.72820924z m-1e-8 0"  horiz-adv-x="1101" />

    
    <glyph glyph-name="fsux_tubiao_leidatu" unicode="&#58890;" d="M511.308283-64.491313c-2.646626 0-5.823354 0.530101-7.945051 2.116525L129.480404 153.165576C124.18198 155.816081 121.535354 161.109333 121.535354 166.937859V599.60501c0 5.827232 2.646626 10.595556 7.94505 13.772283L503.363232 828.917657c5.298424 2.646626 10.591677 2.646626 15.890101 0l373.889293-215.540364c5.293253-2.651798 7.939879-7.945051 7.939879-13.772283v-432.13705c0-5.828525-2.646626-10.595556-7.939879-13.772283L519.253333-62.374788c-2.116525-1.586424-5.298424-2.116525-7.94505-2.116525zM153.307798 176.46804l358.000485-206.535111 358.000485 206.535111V589.543434L511.308283 796.08501 153.307798 589.543434v-413.075394z m0 0M508.131556 731.473455l293.91903-182.707718-95.323798-270.085171-198.596525-43.429495-301.332687-28.065616 47.131151 317.752888 254.202829 206.535112z m0 0M508.131556 596.428283l190.651474-110.682505 87.378748-254.727758-278.030222-110.686384-190.651475 158.34893 23.832565 199.121454 166.81891 118.626263z m0 0"  horiz-adv-x="1024" />

    
    <glyph glyph-name="fsux_tubiao_xuritu" unicode="&#58891;" d="M802.0178915 111.47491616000002c-71.77759362-78.95313661-172.26506847-122.01795765-287.10844643-122.01795765-21.53530229 0-43.06674914 0-64.60205142 7.1755422l28.71084526 107.66783653h43.06674837c78.95699126 0 143.55422321 28.71084449 193.80037076 78.95313583l86.13253346-71.7785569z m35.88638746 43.06771241l-93.30904048 71.77759365c35.88638746 43.06674914 50.24229135 100.48651079 50.24229134 165.0895255 0 143.55422321-107.6639811 265.57410896-244.04266133 279.92904879V779.00663303C751.77174473 757.47133074 909.6818726 592.38566068 909.6818726 384.22938603c0-86.13157018-28.71084449-165.08470679-71.77759363-229.68675746zM400.0651023 3.8109350700000277C292.39726577 39.69924986000001 206.26473231 111.47491616000002 163.19894722 204.78877536000005l100.48747408 43.06482105c35.89120617-64.59915928 86.13253423-107.66783652 157.91012786-129.19735528l-21.53144686-114.84530606zM141.66750036 255.03106671c-14.35590388 43.06674914-21.53530229 86.13253423-21.53530228 129.19831932 0 215.33181684 172.26506847 387.59784937 380.42134235 394.777247v-114.84337873C349.81895552 656.98385668 234.9755768 534.96397093 234.9755768 384.22938603c0-28.71180853 7.17939763-64.59626791 14.35590388-93.30807643l-107.66398031-35.89024289z m0 0M141.66750036 255.03106671c-14.35590388 43.06674914-21.53530229 86.13253423-21.53530228 129.19831932 0 215.33181684 172.26506847 387.59784937 387.59688531 394.777247v-114.84337873c-150.72976619 0-272.7535066-129.19928338-272.75350659-279.93386827 0-28.71180853 7.17939763-64.59626791 14.35590388-93.30807643l-107.66398031-35.89024289z m308.63989328-258.39760195l21.53530229 107.66783577h43.06674914c78.95217255 0 157.90916382 35.88445936 208.15145517 86.13253422l78.95699126-78.95891859c-71.77759362-78.95313661-172.26506847-122.01795765-287.10844643-122.01795765-21.53530229 0-43.06674914 0-64.60205142 7.17650625z m1e-8 0M299.57762746 312.45275646000005c-7.18036168 21.53530229-14.35590388 50.24614677-14.35590389 71.77662957 0 122.02374041 93.30904048 215.33181684 215.33181685 222.51217852v-114.84434199c-57.42168975 0-100.48843812-50.24518272-100.48843812-107.66783653 0-14.3549406 7.17650625-21.53048281 7.17650625-35.88542341L299.57762746 312.45275646000005z m21.53048358-43.0657851l107.66783575 43.06674838c21.53144685-28.71084449 50.24229135-43.06674914 86.13349829-43.06674838 64.59723195 0 114.84337872 50.24614677 114.84337872 114.84241467 0 50.24614677-28.71084449 93.31289591-71.77759363 107.66783653V606.74156455c107.6639811-21.53530229 186.62097235-107.66783652 186.62097235-222.51217852 0-122.0189217-100.48843812-222.50639577-222.51121524-222.50639576-93.30904048 0-165.08567007 43.06578509-200.97687624 107.66398109z m0 0M299.57762746 312.45275646000005c-7.18036168 21.53530229-14.35590388 50.24614677-14.35590389 71.77662957 0 122.02374041 93.30904048 222.51217852 215.33181685 222.51217852v-114.84434199c-50.24614677 0-100.48843812-50.24518272-100.48843812-107.66783653 0-14.3549406 7.17650625-21.53048281 7.17650625-35.88542341L299.57762746 312.45275646000005z m0 0"  horiz-adv-x="1060" />

    
    <glyph glyph-name="fsux_tubiao_duijimianjitu" unicode="&#58892;" d="M145.53657644 514.06534131v-364.95916232h896.52592393v547.43607916c-47.60369358-71.40340915-126.9417615-111.07457391-230.08061124-111.07457309-150.74573868 0-174.54545425 198.34943142-357.02663351 198.34943143-119.00603733 0-222.14808243-87.27485833-309.41867918-269.75177518z m0 0M145.53657644 331.58309665v-182.47691766h896.52592393V458.52592356c-55.53515616-87.27059674-126.9417615-126.9428269-206.28089566-126.94282691-126.9417615 0-206.28089483 214.21768442-372.89062492 214.21768442-119.0102981 0-222.14808243-71.40767075-317.35440335-214.21768442z m0 0"  horiz-adv-x="1233" />

    
    <glyph glyph-name="fsux_tubiao_baifenbiduijitu" unicode="&#58893;" d="M131.39090907 688.05568156h947.83295479v-651.63749941h-947.83295479V688.05568156z m0 0M131.39090907 36.41818215000001V281.84090920000006C207.55795478 408.78068147 317.57159053 468.02272707 452.97727256 468.02272707c203.10681797 0 389.28863672-211.57159131 626.2465913-152.33068125v-279.27386367h-947.83295478z m0 0"  horiz-adv-x="1233" />

    
    <glyph glyph-name="fsux_tubiao_biaoge" unicode="&#58894;" d="M128 483.556h768v-85.334H128z m0-199.112h768v-85.333H128zM113.778 711.111V56.889999999999986h796.444V711.11H113.778z m28.444-625.778v512h227.556v-512H142.222z m256 0v512h256v-512h-256z m483.556 0H682.667v512h199.11v-512z"  horiz-adv-x="1024" />

    
    <glyph glyph-name="fsux_tubiao_bingtu1" unicode="&#58895;" d="M483.556 355.55600000000004V750.933C292.978 736.711 142.222 577.423 142.222 384c0-204.8 164.978-369.778 369.778-369.778 193.422 0 352.711 150.756 366.933 341.334H483.556zM540.444 779.378v-366.934h366.934C896 608.711 736.71 768 540.444 779.378z"  horiz-adv-x="1024" />

    
    <glyph glyph-name="fsux_tubiao_yibiaopan" unicode="&#58896;" d="M339.058 201.95600000000002c-24.273 33.374-39.443 75.851-39.443 121.363 0 118.328 94.056 212.385 212.385 212.385s212.385-94.057 212.385-212.385c0-45.512-15.17-87.989-39.443-121.363l54.614-27.307c27.306 42.477 45.51 94.056 45.51 148.67 0 151.703-121.362 273.066-273.066 273.066S238.933 475.022 238.933 323.32000000000005c0-54.614 15.17-106.193 45.511-148.67l54.614 27.307zM229.831 144.308c-33.375 51.58-51.58 112.26-51.58 179.01 0 185.079 148.67 333.749 333.749 333.749s333.748-148.67 333.748-333.748c0-66.75-18.204-127.432-51.58-179.01l78.887-42.478C912.498 165.54700000000003 936.77 241.39999999999998 936.77 323.32000000000005c0 233.623-191.146 424.77-424.77 424.77S87.23 556.942 87.23 323.31899999999996c0-81.92 24.272-157.772 63.715-221.488l78.886 42.477zM569.647 126.10400000000004c9.103 33.375 27.307 336.782 27.307 336.782S460.421 189.81899999999996 451.32 156.44399999999996c-9.103-33.374 9.102-66.75 42.477-72.817 33.374-9.103 66.75 9.102 75.851 42.477z"  horiz-adv-x="1024" />

    
    <glyph glyph-name="fsux_tubiao_zhibiaoka" unicode="&#58897;" d="M142.222 99.55600000000004h142.222l-71.11 142.222z m199.111 85.333h568.89v-85.333h-568.89zM876.089 588.8c0 54.044-45.511 99.556-99.556 99.556s-99.555-45.512-99.555-99.556h56.889c0 22.756 19.91 42.667 42.666 42.667S819.2 611.556 819.2 588.8c0-17.067-8.533-31.289-22.756-36.978-8.533-5.689-17.066-14.222-17.066-25.6s5.689-19.91 17.066-25.6c14.223-8.533 22.756-22.755 22.756-36.978 0-22.755-19.911-42.666-42.667-42.666s-42.666 19.91-42.666 42.666h-56.89c0-54.044 45.512-99.555 99.556-99.555s99.556 45.511 99.556 99.555c0 22.756-8.533 45.512-22.756 62.578 14.223 17.067 22.756 39.822 22.756 62.578zM256 688.356c-8.533 2.844-19.911 2.844-28.444-5.69l-108.09-85.333 34.134-42.666 59.733 48.355V364.09000000000003h56.89V659.91c2.844 11.378-2.845 22.756-14.223 28.445zM591.644 588.8c0 25.6-11.377 51.2-28.444 71.111-19.911 19.911-42.667 28.445-71.111 28.445-25.6 0-51.2-11.378-71.111-28.445s-28.445-42.667-28.445-71.111h56.89c0 11.378 5.688 22.756 11.377 31.289 17.067 17.067 42.667 17.067 59.733 0 8.534-8.533 11.378-19.911 11.378-31.289s-5.689-22.756-14.222-31.289L398.222 409.6c-5.689-8.533-8.533-19.911-2.844-31.289s14.222-17.067 25.6-17.067h170.666v56.89H480.711l82.489 99.555c17.067 19.911 28.444 45.511 28.444 71.111z"  horiz-adv-x="1024" />

    
    <glyph glyph-name="fsux_tubiao_ditu_sandian" unicode="&#58898;" d="M938.667 603.0219999999999v73.956h-5.69l-19.91-22.756c-2.845-2.844-5.69-2.844-8.534-2.844H896c-2.844 0-8.533 2.844-8.533 5.689l-14.223 11.377c-2.844 2.845-5.688 5.69-8.533 5.69h-17.067c-2.844 0-8.533 2.844-11.377 5.688l-31.29 45.511c-2.844 2.845-5.688 5.69-8.533 5.69l-19.91 2.844h-5.69l-31.288-11.378v-17.067l-5.69-36.978c0-2.844-2.844-5.688-2.844-5.688l-5.689-5.69c-2.844-2.844-5.689-2.844-8.533-2.844h-5.689c-5.689 0-11.378-2.844-11.378-8.533l-5.689-14.222c-2.844-8.534 2.845-17.067 11.378-17.067h14.222l11.378 8.533 8.534-5.689c5.688-5.688 2.844-17.066-5.69-19.91l-25.6-8.534v-17.067h-25.6l-5.688-17.066-22.756 2.844c-5.689 0-8.533-2.844-11.378-5.689l-5.688-8.533 8.533-8.533-22.756-25.6c-2.844-2.845-5.689-2.845-8.533-2.845h-34.133c-2.845 0-5.69 0-8.534-2.844l-8.533-8.534c-2.844-2.844-5.689-2.844-8.533-2.844h-25.6c-2.845 0-5.69 0-8.534 2.844l-17.066 14.223c-2.845 0-2.845 2.844-5.69 2.844l-62.577 2.844c-2.844 0-5.689 2.845-8.533 5.69l-34.134 45.51c-2.844 2.845-5.689 5.69-8.533 5.69h-2.844c-5.69 0-11.378 5.688-11.378 11.377v19.911l-2.845 17.067c0 2.844-2.844 5.689-5.689 8.533h-19.91c-2.845 0-5.69 2.845-5.69 5.69l-5.688 17.066h-14.223L307.2 640h-14.222v-14.222h-28.445c-2.844 0-8.533-2.845-8.533-5.69l-11.378-17.066c-2.844-2.844-5.689-5.689-11.378-5.689h-14.222c-5.689 0-11.378-5.689-11.378-11.377v-17.067c0-2.845 0-5.689-2.844-5.689l-8.533-14.222c-2.845-2.845-2.845-5.69-8.534-5.69l-31.289-8.532H108.09c-2.845 0-5.689-2.845-8.533-2.845l-8.534-11.378c-5.689-8.533-5.689-11.377-5.689-14.222v-14.222h11.378v-45.511c0-2.845 2.845-5.69 5.689-8.534l19.911-17.066c2.845-2.845 2.845-2.845 2.845-5.69l5.688-19.91V358.4h-11.377v-22.756c0-2.844 2.844-5.688 2.844-8.533l25.6-22.755h14.222l56.89-56.89 2.844-2.844 48.355-19.91 8.534 11.377h17.066c5.69 0 8.534-2.845 11.378-5.689l8.533-17.067c2.845-2.844 5.69-5.689 11.378-5.689h14.222c2.845 0 2.845 0 5.69 2.845l28.444 17.067c2.844 2.844 8.533 2.844 11.377 0l25.6-11.378v11.378h14.223l5.689-17.067v-25.6c0-2.845 0-5.689-2.845-8.533l-14.222-14.223v-14.222l11.378-2.844c2.844 0 8.533-2.845 8.533-8.534l2.844-8.533v-19.911l28.445-19.911c2.844-2.845 5.689-2.845 5.689-2.845h5.689c5.689 0 11.377 5.69 11.377 11.378s5.69 11.378 11.378 11.378h28.445c2.844 0 5.689 0 8.533 2.844l8.533 5.69c5.69 2.844 11.378 2.844 17.067-2.845l19.911-22.756c2.845-2.844 5.689-5.689 8.533-5.689h34.134l2.844-14.222-19.91-22.755v-14.223l14.221-8.533c5.69-2.844 14.223 0 17.067 5.689l14.222 19.911c2.845 2.844 2.845 5.689 2.845 8.533l-2.845 19.911c0 5.69 2.845 14.223 8.534 14.223l19.91 5.689h5.69l11.377-2.845 14.223 5.689 2.844 14.222c0 5.69 5.689 8.534 8.533 8.534l17.067 5.688c2.844 0 2.844 0 5.689 2.845l54.044 48.355c2.845 2.845 2.845 2.845 2.845 5.69l8.533 42.666c0 2.844 2.845 5.689 5.689 8.533l14.222 8.534c2.845 2.844 5.69 8.533 5.69 11.377l-5.69 51.2c0 2.845-2.844 5.69-5.689 8.534l-11.377 8.533c-2.845 2.845-5.69 5.689-5.69 8.533l-2.844 11.378c0 2.845-2.844 5.69-5.689 8.534l-19.91 17.066c-5.69 2.845-5.69 11.378-2.845 17.067l11.378 19.911c0 2.844 2.844 2.844 5.688 5.689l22.756 8.533v14.222h-22.756c-2.844 0-8.533-2.844-11.377-5.688l-8.534-11.378-8.533-8.534-2.844 14.223-19.912 5.689 48.356 62.577 5.689-8.533v-17.067c0-2.844 0-8.533 2.844-8.533l2.845-2.844c5.689-2.845 11.378-2.845 17.066 0l39.823 39.822c2.844 2.844 2.844 5.689 2.844 11.378l-2.844 11.377 25.6 2.845c2.844 0 5.689 2.844 8.533 2.844l22.756 22.756c2.844 2.844 5.688 8.533 2.844 14.222l-14.222 31.289 11.378 11.378h19.91zM799.289 133.69000000000005c0-2.845-2.845-2.845-2.845-5.689v-22.756c0-2.844 0-5.688 2.845-8.533l11.378-17.067 8.533 11.378c0 2.845 2.844 2.845 2.844 5.69l5.69 59.732H813.51L799.29 133.69000000000005zM668.444 483.556c-71.11 0-128-56.89-128-128 0-110.934 128-201.956 128-201.956s128 91.022 128 201.956c0 71.11-56.888 128-128 128z m0-182.045c-31.288 0-54.044 25.6-54.044 54.045 0 31.288 25.6 54.044 54.044 54.044s54.045-25.6 54.045-54.044c0-31.29-22.756-54.045-54.045-54.045z"  horiz-adv-x="1024" />

    
    <glyph glyph-name="fsux_tubiao_ditu_reli" unicode="&#58899;" d="M938.667 603.0219999999999v73.956h-5.69l-19.91-22.756c-2.845-2.844-5.69-2.844-8.534-2.844H896c-2.844 0-8.533 2.844-8.533 5.689l-14.223 11.377c-2.844 2.845-5.688 5.69-8.533 5.69h-17.067c-2.844 0-8.533 2.844-11.377 5.688l-31.29 45.511c-2.844 2.845-5.688 5.69-8.533 5.69l-19.91 2.844h-5.69l-31.288-11.378v-17.067l-5.69-36.978c0-2.844-2.844-5.688-2.844-5.688l-5.689-5.69c-2.844-2.844-5.689-2.844-8.533-2.844h-5.689c-5.689 0-11.378-2.844-11.378-8.533l-5.689-14.222c-2.844-8.534 2.845-17.067 11.378-17.067h14.222l11.378 8.533 8.534-5.689c5.688-5.688 2.844-17.066-5.69-19.91l-25.6-8.534v-17.067h-25.6l-5.688-17.066-22.756 2.844c-5.689 0-8.533-2.844-11.378-5.689l-5.688-8.533 8.533-8.533-22.756-25.6c-2.844-2.845-5.689-2.845-8.533-2.845h-34.133c-2.845 0-5.69 0-8.534-2.844l-8.533-8.534c-2.844-2.844-5.689-2.844-8.533-2.844h-25.6c-2.845 0-5.69 0-8.534 2.844l-17.066 14.223c-2.845 0-2.845 2.844-5.69 2.844l-62.577 2.844c-2.844 0-5.689 2.845-8.533 5.69l-34.134 45.51c-2.844 2.845-5.689 5.69-8.533 5.69h-2.844c-5.69 0-11.378 5.688-11.378 11.377v19.911l-2.845 17.067c0 2.844-2.844 5.689-5.689 8.533h-19.91c-2.845 0-5.69 2.845-5.69 5.69l-5.688 17.066h-14.223L307.2 640h-14.222v-14.222h-28.445c-2.844 0-8.533-2.845-8.533-5.69l-11.378-17.066c-2.844-2.844-5.689-5.689-11.378-5.689h-14.222c-5.689 0-11.378-5.689-11.378-11.377v-17.067c0-2.845 0-5.689-2.844-5.689l-8.533-14.222c-2.845-2.845-2.845-5.69-8.534-5.69l-31.289-8.532H108.09c-2.845 0-5.689-2.845-8.533-2.845l-8.534-11.378c-5.689-8.533-5.689-11.377-5.689-14.222v-14.222h11.378v-45.511c0-2.845 2.845-5.69 5.689-8.534l19.911-17.066c2.845-2.845 2.845-2.845 2.845-5.69l5.688-19.91V358.4h-11.377v-22.756c0-2.844 2.844-5.688 2.844-8.533l25.6-22.755h14.222l56.89-56.89 2.844-2.844 48.355-19.91 8.534 11.377h17.066c5.69 0 8.534-2.845 11.378-5.689l8.533-17.067c2.845-2.844 5.69-5.689 11.378-5.689h14.222c2.845 0 2.845 0 5.69 2.845l28.444 17.067c2.844 2.844 8.533 2.844 11.377 0l25.6-11.378v11.378h14.223l5.689-17.067v-25.6c0-2.845 0-5.689-2.845-8.533l-14.222-14.223v-14.222l11.378-2.844c2.844 0 8.533-2.845 8.533-8.534l2.844-8.533v-19.911l28.445-19.911c2.844-2.845 5.689-2.845 5.689-2.845h5.689c5.689 0 11.377 5.69 11.377 11.378s5.69 11.378 11.378 11.378h28.445c2.844 0 5.689 0 8.533 2.844l8.533 5.69c5.69 2.844 11.378 2.844 17.067-2.845l19.911-22.756c2.845-2.844 5.689-5.689 8.533-5.689h34.134l2.844-14.222-19.91-22.755v-14.223l14.221-8.533c5.69-2.844 14.223 0 17.067 5.689l14.222 19.911c2.845 2.844 2.845 5.689 2.845 8.533l-2.845 19.911c0 5.69 2.845 14.223 8.534 14.223l19.91 5.689h5.69l11.377-2.845 14.223 5.689 2.844 14.222c0 5.69 5.689 8.534 8.533 8.534l17.067 5.688c2.844 0 2.844 0 5.689 2.845l54.044 48.355c2.845 2.845 2.845 2.845 2.845 5.69l8.533 42.666c0 2.844 2.845 5.689 5.689 8.533l14.222 8.534c2.845 2.844 5.69 8.533 5.69 11.377l-5.69 51.2c0 2.845-2.844 5.69-5.689 8.534l-11.377 8.533c-2.845 2.845-5.69 5.689-5.69 8.533l-2.844 11.378c0 2.845-2.844 5.69-5.689 8.534l-19.91 17.066c-5.69 2.845-5.69 11.378-2.845 17.067l11.378 19.911c0 2.844 2.844 2.844 5.688 5.689l22.756 8.533v14.222h-22.756c-2.844 0-8.533-2.844-11.377-5.688l-8.534-11.378-8.533-8.534-2.844 14.223-19.912 5.689 48.356 62.577 5.689-8.533v-17.067c0-2.844 0-8.533 2.844-8.533l2.845-2.844c5.689-2.845 11.378-2.845 17.066 0l39.823 39.822c2.844 2.844 2.844 5.689 2.844 11.378l-2.844 11.377 25.6 2.845c2.844 0 5.689 2.844 8.533 2.844l22.756 22.756c2.844 2.844 5.688 8.533 2.844 14.222l-14.222 31.289 11.378 11.378h19.91zM799.289 133.69000000000005c0-2.845-2.845-2.845-2.845-5.689v-22.756c0-2.844 0-5.688 2.845-8.533l11.378-17.067 8.533 11.378c0 2.845 2.844 2.845 2.844 5.69l5.69 59.732H813.51L799.29 133.69000000000005zM489.244 324.26700000000005c-8.533 14.222-8.533 31.289-11.377 42.666-17.067 73.956-85.334 130.845-164.978 130.845-93.867 0-170.667-76.8-170.667-170.667 0-79.644 54.045-145.067 128-164.978 14.222-2.844 34.134-2.844 45.511-11.377 11.378-8.534 14.223-17.067 19.911-25.6 22.756-34.134 59.734-54.045 105.245-54.045 71.111 0 128 56.889 128 128 0 39.822-19.911 76.8-48.356 99.556-11.377 8.533-22.755 14.222-31.289 25.6zM483.556 253.15599999999995c-2.845 2.844-5.69 2.844-5.69 5.688-8.533 5.69-25.6 17.067-34.133 34.134-14.222 19.91-17.066 39.822-17.066 54.044v5.69c-11.378 51.2-56.89 88.177-110.934 88.177-62.577 0-113.777-51.2-113.777-113.778 0-51.2 34.133-96.711 85.333-110.933 2.844 0 5.689 0 8.533-2.845 14.222-2.844 34.134-5.689 51.2-14.222 22.756-14.222 31.29-31.289 36.978-39.822 0 0 0-2.845 2.844-2.845 14.223-19.91 34.134-31.288 56.89-31.288 39.822 0 71.11 31.288 71.11 71.11-2.844 25.6-11.377 45.512-31.288 56.89z"  horiz-adv-x="1024" />

    
    <glyph glyph-name="fsux_tubiao_ditu" unicode="&#58900;" d="M938.667 603.0219999999999v73.956h-5.69l-19.91-22.756c-2.845-2.844-5.69-2.844-8.534-2.844H896c-2.844 0-8.533 2.844-8.533 5.689l-14.223 11.377c-2.844 2.845-5.688 5.69-8.533 5.69h-17.067c-2.844 0-8.533 2.844-11.377 5.688l-31.29 45.511c-2.844 2.845-5.688 5.69-8.533 5.69l-19.91 2.844h-5.69l-31.288-11.378v-17.067l-5.69-36.978c0-2.844-2.844-5.688-2.844-5.688l-5.689-5.69c-2.844-2.844-5.689-2.844-8.533-2.844h-5.689c-5.689 0-11.378-2.844-11.378-8.533l-5.689-14.222c-2.844-8.534 2.845-17.067 11.378-17.067h14.222l11.378 8.533 8.534-5.689c5.688-5.688 2.844-17.066-5.69-19.91l-25.6-8.534v-17.067h-25.6l-5.688-17.066-22.756 2.844c-5.689 0-8.533-2.844-11.378-5.689l-5.688-8.533 8.533-8.533-22.756-25.6c-2.844-2.845-5.689-2.845-8.533-2.845h-34.133c-2.845 0-5.69 0-8.534-2.844l-8.533-8.534c-2.844-2.844-5.689-2.844-8.533-2.844h-25.6c-2.845 0-5.69 0-8.534 2.844l-17.066 14.223c-2.845 0-2.845 2.844-5.69 2.844l-62.577 2.844c-2.844 0-5.689 2.845-8.533 5.69l-34.134 45.51c-2.844 2.845-5.689 5.69-8.533 5.69h-2.844c-5.69 0-11.378 5.688-11.378 11.377v19.911l-2.845 17.067c0 2.844-2.844 5.689-5.689 8.533h-19.91c-2.845 0-5.69 2.845-5.69 5.69l-5.688 17.066h-14.223L307.2 640h-14.222v-14.222h-28.445c-2.844 0-8.533-2.845-8.533-5.69l-11.378-17.066c-2.844-2.844-5.689-5.689-11.378-5.689h-14.222c-5.689 0-11.378-5.689-11.378-11.377v-17.067c0-2.845 0-5.689-2.844-5.689l-8.533-14.222c-2.845-2.845-2.845-5.69-8.534-5.69l-31.289-8.532H108.09c-2.845 0-5.689-2.845-8.533-2.845l-8.534-11.378c-5.689-8.533-5.689-11.377-5.689-14.222v-14.222h11.378v-45.511c0-2.845 2.845-5.69 5.689-8.534l19.911-17.066c2.845-2.845 2.845-2.845 2.845-5.69l5.688-19.91V358.4h-11.377v-22.756c0-2.844 2.844-5.688 2.844-8.533l25.6-22.755h14.222l56.89-56.89 2.844-2.844 48.355-19.91 8.534 11.377h17.066c5.69 0 8.534-2.845 11.378-5.689l8.533-17.067c2.845-2.844 5.69-5.689 11.378-5.689h14.222c2.845 0 2.845 0 5.69 2.845l28.444 17.067c2.844 2.844 8.533 2.844 11.377 0l25.6-11.378v11.378h14.223l5.689-17.067v-25.6c0-2.845 0-5.689-2.845-8.533l-14.222-14.223v-14.222l11.378-2.844c2.844 0 8.533-2.845 8.533-8.534l2.844-8.533v-19.911l28.445-19.911c2.844-2.845 5.689-2.845 5.689-2.845h5.689c5.689 0 11.377 5.69 11.377 11.378s5.69 11.378 11.378 11.378h28.445c2.844 0 5.689 0 8.533 2.844l8.533 5.69c5.69 2.844 11.378 2.844 17.067-2.845l19.911-22.756c2.845-2.844 5.689-5.689 8.533-5.689h34.134l2.844-14.222-19.91-22.755v-14.223l14.221-8.533c5.69-2.844 14.223 0 17.067 5.689l14.222 19.911c2.845 2.844 2.845 5.689 2.845 8.533l-2.845 19.911c0 5.69 2.845 14.223 8.534 14.223l19.91 5.689h5.69l11.377-2.845 14.223 5.689 2.844 14.222c0 5.69 5.689 8.534 8.533 8.534l17.067 5.688c2.844 0 2.844 0 5.689 2.845l54.044 48.355c2.845 2.845 2.845 2.845 2.845 5.69l8.533 42.666c0 2.844 2.845 5.689 5.689 8.533l14.222 8.534c2.845 2.844 5.69 8.533 5.69 11.377l-5.69 51.2c0 2.845-2.844 5.69-5.689 8.534l-11.377 8.533c-2.845 2.845-5.69 5.689-5.69 8.533l-2.844 11.378c0 2.845-2.844 5.69-5.689 8.534l-19.91 17.066c-5.69 2.845-5.69 11.378-2.845 17.067l11.378 19.911c0 2.844 2.844 2.844 5.688 5.689l22.756 8.533v14.222h-22.756c-2.844 0-8.533-2.844-11.377-5.688l-8.534-11.378-8.533-8.534-2.844 14.223-19.912 5.689 48.356 62.577 5.689-8.533v-17.067c0-2.844 0-8.533 2.844-8.533l2.845-2.844c5.689-2.845 11.378-2.845 17.066 0l39.823 39.822c2.844 2.844 2.844 5.689 2.844 11.378l-2.844 11.377 25.6 2.845c2.844 0 5.689 2.844 8.533 2.844l22.756 22.756c2.844 2.844 5.688 8.533 2.844 14.222l-14.222 31.289 11.378 11.378h19.91zM799.289 133.68899999999996c0-2.845-2.845-2.845-2.845-5.689v-22.756c0-2.844 0-5.688 2.845-8.533l11.378-17.067 8.533 11.378c0 2.845 2.844 2.845 2.844 5.69l5.69 59.732H813.51L799.29 133.69000000000005zM256 412.444a56.889 56.889 0 1 1 113.778 0 56.889 56.889 0 1 1-113.778 0zM711.111 284.44399999999996a99.556 99.556 0 1 1 199.111 0 99.556 99.556 0 1 1-199.11 0z"  horiz-adv-x="1024" />

    
    <glyph glyph-name="fsux_tubiao_ciyun" unicode="&#58901;" d="M356.545293 516.904081h-42.369293l-26.479192 100.620929h-0.530101l-25.420283-100.620929H218.853495L171.190949 666.772687h43.424324l27.535515-101.67596h0.530101l24.89406 101.67596h40.247596l25.41899-101.67596h0.530101l27.535516 101.67596h42.369292l-47.131151-149.868606z m101.67596 74.671838c0-5.828525 0.531394-11.651879 1.591595-17.479111 1.060202-5.823354 3.176727-10.591677 5.823354-15.358707 2.651798-4.763152 6.358626-7.939879 11.120485-11.121778 4.768323-2.646626 10.596848-4.231758 17.480404-4.231757s12.706909 1.585131 17.473939 4.231757c4.768323 2.651798 8.475152 6.358626 11.121778 11.121778 2.646626 4.76703 4.768323 9.535354 5.823354 15.358707a97.437737 97.437737 0 0 1 1.590303 17.479111c0 5.823354-0.530101 11.646707-1.590303 17.475233-1.05503 5.823354-3.176727 11.120485-5.823354 15.358707-2.646626 4.236929-6.353455 7.943758-11.121778 11.120484-4.76703 3.176727-10.590384 4.238222-17.473939 4.238223s-12.712081-1.591596-17.480404-4.238223c-4.761859-2.651798-8.468687-6.358626-11.120485-11.120484-2.646626-4.238222-4.763152-9.535354-5.823354-15.358707-1.060202-5.298424-1.591596-11.121778-1.591595-17.475233z m-41.307798 0c0 12.176808 1.591596 22.768485 5.298424 32.83394 3.706828 9.530182 9.005253 18.00404 15.888808 24.888888 6.883556 6.883556 14.828606 12.18198 24.358788 15.888809 9.535354 3.706828 20.125737 5.823354 31.777616 5.823353 11.651879 0 22.242263-2.116525 32.302545-5.823353 9.530182-3.706828 18.005333-9.005253 24.358788-15.888809 6.888727-6.884848 12.18198-15.358707 15.888808-24.888888 3.706828-9.535354 5.298424-20.657131 5.298425-32.83394 0-12.18198-1.590303-22.772364-5.298425-32.307717-3.706828-9.530182-9.000081-18.005333-15.888808-24.888889-6.883556-6.883556-14.828606-12.18198-24.358788-15.888808-9.530182-3.706828-20.125737-5.293253-32.302545-5.293252-11.651879 0-22.242263 1.586424-31.777616 5.293252-9.530182 3.706828-17.475232 9.005253-24.358788 15.888808s-12.18198 15.358707-15.888808 24.888889c-3.706828 9.535354-5.298424 20.655838-5.298424 32.307717z m182.176323 75.196768h39.192565V638.707071h0.530101c2.116525 4.768323 4.768323 9.005253 7.945051 12.712081 3.176727 3.708121 6.883556 7.414949 11.121778 10.061575 4.236929 2.645333 9.000081 4.76703 13.767111 6.353455 4.768323 1.590303 10.060283 2.120404 15.358707 2.120404 2.646626 0 5.823354-0.530101 9.000081-1.58901v-38.131071c-2.116525 0.530101-4.231758 0.530101-6.883556 1.060202-2.646626 0.530101-5.293253 0.530101-7.94505 0.530101-7.413657 0-13.767111-1.060202-19.060364-3.706828-5.298424-2.651798-9.535354-5.828525-12.712081-10.065455-3.176727-4.233051-5.298424-9.530182-6.883555-15.353535-1.590303-5.828525-2.121697-12.18198-2.121697-19.065535v-67.788283h-41.307798V666.772687z m219.253656-74.671839c0 6.358626-0.530101 12.18198-1.590303 18.010506-1.060202 5.823354-3.176727 10.591677-5.823353 15.353535-2.651798 4.236929-6.358626 7.945051-11.121778 10.595555-4.236929 2.646626-10.065455 4.233051-16.94901 4.233051s-12.712081-1.586424-16.943838-4.233051a30.586828 30.586828 0 0 1-11.121778-10.595555c-2.651798-4.231758-4.768323-9.530182-6.358627-15.353535-1.05503-5.828525-2.116525-11.651879-2.116525-18.010506 0-5.822061 0.530101-11.645414 2.116525-17.473939 1.590303-5.823354 3.706828-11.123071 6.358627-15.358707 3.176727-4.763152 6.883556-8.46998 11.121778-11.121778 4.231758-2.646626 10.060283-4.236929 16.413737-4.236929 6.883556 0 12.18198 1.590303 16.94901 4.236929 4.763152 2.651798 7.945051 6.358626 11.121778 11.121778 2.646626 4.76703 4.763152 9.535354 5.823353 15.358707 1.58901 5.297131 2.120404 11.651879 2.120404 17.473939z m0.52493-56.131232h-0.52493c-4.768323-7.943758-11.121778-13.772283-19.065535-17.479111-7.945051-3.706828-16.94901-5.293253-26.479192-5.293252-11.121778 0-21.187232 2.116525-29.657212 6.353454-8.475152 4.236929-15.358707 10.060283-21.187232 17.475232-5.823354 7.413657-9.530182 15.888808-12.706909 25.949091-2.646626 9.535354-4.236929 19.595636-4.23693 30.187313 0 10.060283 1.590303 19.595636 4.23693 29.125819 2.646626 9.535354 6.883556 17.480404 12.706909 24.89406 5.298424 7.413657 12.18198 12.706909 20.657131 17.475233 8.475152 4.236929 18.005333 6.353455 29.125818 6.353454 9.005253 0 17.475232-2.116525 25.41899-5.823353 7.945051-3.706828 14.298505-9.535354 19.065535-16.950303h0.530101v75.733333h41.307798v-207.066505h-39.192565v19.065535zM127.762747 383.975434c-2.116525 14.828606-11.121778 22.772364-26.480484 22.772364-5.823354 0-10.590384-1.05503-14.298505-3.706828-3.706828-2.646626-6.883556-5.823354-9.530182-10.060283-2.650505-4.238222-4.236929-8.475152-5.297132-13.768404-1.061495-4.76703-1.586424-10.064162-1.586424-14.828606 0-4.76703 0.524929-9.535354 1.586424-14.297212 1.060202-4.768323 2.646626-9.535354 4.767031-13.242182 2.116525-3.708121 5.293253-7.414949 9.530182-9.530182 3.708121-2.651798 8.475152-3.708121 14.298505-3.708121 8.475152 0 15.358707 2.646626 20.125737 7.414949 4.768323 4.761859 7.414949 11.120485 9.005253 19.589172h34.949171c-2.115232-17.475232-9.000081-30.712242-20.120565-39.717495-11.121778-9.005253-25.41899-13.765818-42.899394-13.765818-10.060283 0-19.065535 1.585131-27.009293 4.761858-8.46998 3.181899-15.353535 7.946343-21.182061 13.773576-5.823354 5.823354-10.060283 13.235717-13.23701 21.182061-3.17802 8.473859-4.768323 17.473939-4.768323 27.009293 0 10.061576 1.590303 19.596929 4.236929 28.065616 3.176727 8.475152 7.414949 16.420202 13.238303 22.773656 5.827232 6.353455 12.712081 11.120485 21.185939 14.827314 8.46998 3.708121 18.005333 5.298424 28.597011 5.298424 7.943758 0 15.357414-1.060202 22.242262-3.176727 7.413657-2.121697 13.767111-5.298424 19.065536-9.535354 5.823354-4.236929 10.060283-9.530182 13.767111-15.358707 3.706828-6.353455 5.828525-13.767111 6.353454-21.712162H127.762747v-1.060202z m57.196607 96.389172h36.009373v-181.121293H184.959354V480.364606z m96.384-115.449535c0-5.298424 0.530101-10.596848 1.585131-15.358707 1.061495-4.768323 2.651798-9.535354 5.298424-13.243475 2.646626-4.236929 5.828525-7.413657 9.535354-9.530182 4.231758-2.120404 9.000081-3.706828 15.353535-3.706828 6.358626 0 11.120485 1.061495 15.358707 3.706828 4.236929 2.646626 7.413657 5.293253 10.065455 9.530182 2.646626 4.238222 4.231758 8.475152 5.293252 13.243475 1.060202 4.761859 1.590303 10.060283 1.590303 15.358707 0 5.29196-0.530101 10.590384-1.590303 15.353535-1.061495 5.297131-2.646626 9.535354-5.293252 13.242182-2.651798 3.706828-5.828525 6.883556-10.065455 9.530182-4.238222 2.651798-9.530182 3.706828-15.358707 3.706828-6.353455 0-11.121778-1.05503-15.353535-3.706828-4.236929-2.646626-7.413657-5.823354-9.535354-9.530182-2.646626-3.706828-4.236929-8.475152-5.298424-13.242182-1.05503-5.29196-1.585131-10.591677-1.585131-15.353535z m-36.010667 0c0 10.590384 1.586424 20.120566 4.763151 28.595717 3.176727 8.473859 7.943758 15.888808 13.772283 21.712161 5.823354 5.823354 13.23701 10.590384 21.182061 13.767112 8.475152 3.176727 17.475232 4.768323 28.065616 4.768323 10.595556 0 19.595636-1.591596 28.070788-4.768323 8.475152-3.176727 15.358707-7.943758 21.712161-13.767112s10.590384-13.238303 13.767112-21.712161c3.176727-8.475152 4.768323-18.005333 4.768323-28.595717 0-10.596848-1.591596-20.12703-4.768323-28.602182-3.176727-8.468687-7.943758-15.883636-13.767112-21.710869-5.823354-5.823354-13.23701-10.591677-21.712161-13.768404-8.475152-3.176727-17.475232-4.76703-28.070788-4.76703-10.590384 0-19.590465 1.58901-28.065616 4.76703-8.475152 3.176727-15.358707 7.946343-21.182061 13.768404-5.828525 5.827232-10.595556 13.242182-13.772283 21.710869-3.176727 8.475152-4.763152 18.005333-4.763151 28.602182z m282.798545-65.671758h-34.424242v18.535434h-0.530101c-4.768323-7.414949-10.591677-13.238303-18.005333-16.41503-7.414949-3.181899-14.828606-5.297131-22.242263-5.297131-9.535354 0-17.480404 1.060202-23.833859 3.706828s-11.121778 6.353455-14.828606 10.589091c-3.706828 4.768323-5.823354 10.591677-7.413656 16.950303-1.586424 6.883556-2.116525 14.297212-2.116526 22.242263v81.025293h36.010667v-74.141738c0-10.591677 1.590303-19.065535 5.297131-24.365252 3.176727-5.293253 9.530182-7.938586 18.005334-7.938586 10.060283 0 16.945131 3.176727 21.18206 8.998788 4.236929 5.828525 6.353455 15.358707 6.353455 28.59701v68.848485h36.014545v-131.338344h0.531394z m120.211394 65.671758c0 5.29196-0.530101 10.590384-1.586424 15.883636-1.060202 4.76703-2.651798 9.535354-5.298424 13.242182a40.665212 40.665212 0 0 1-9.530182 9.530182c-3.706828 2.121697-9.005253 3.706828-14.828606 3.706828-5.828525 0-11.121778-1.060202-14.828606-3.706828-4.236929-2.116525-7.413657-5.293253-9.535354-9.530182-2.646626-3.706828-4.236929-8.475152-5.293252-13.242182-1.060202-4.764444-1.590303-10.061576-1.590303-15.883636 0-5.298424 0.530101-10.066747 1.590303-15.358707 1.05503-5.298424 3.176727-9.535354 5.823353-13.773576 2.646626-4.230465 5.823354-7.412364 10.060283-9.530182 4.236929-2.646626 9.005253-3.706828 14.303677-3.706828 5.823354 0 11.121778 1.060202 14.828606 3.706828 4.231758 2.117818 7.413657 5.299717 9.530182 9.530182 2.116525 4.238222 4.236929 8.476444 5.298424 13.773576 0.526222 4.761859 1.056323 10.061576 1.056323 15.358707z m0.530101-49.251556c-4.768323-6.883556-10.060283-12.18198-16.943838-15.358707s-14.828606-4.768323-23.302465-4.768323c-10.060283 0-18.535434 2.121697-25.949091 5.828525s-13.767111 9.000081-18.535434 15.358707c-4.768323 6.353455-8.475152 13.768404-11.121778 22.242263-2.646626 8.46998-3.706828 17.476525-3.706828 26.476606 0 9.005253 1.060202 17.479111 3.706828 25.424161 2.646626 8.46998 6.353455 15.353535 11.121778 21.712162 4.768323 6.353455 11.121778 11.120485 18.005333 15.358707 7.413657 3.706828 15.888808 5.823354 25.41899 5.823354 7.945051 0 15.358707-1.591596 22.242263-4.768324s12.712081-7.943758 16.418909-14.828606h0.530101v66.203152h36.010667v-181.121293h-33.894142v16.417616z m0 0M758.498909 445.40897c-0.530101 3.708121-2.121697 6.353455-4.236929 7.94505-2.121697 1.585131-5.298424 2.646626-8.475152 2.646626-1.590303 0-3.176727-0.530101-5.298424-1.061494-2.116525-0.530101-3.706828-1.585131-4.763151-3.176728-1.590303-1.585131-2.651798-3.706828-3.706829-6.353454-1.060202-2.645333-1.590303-6.353455-1.590303-10.590384 0-2.121697 0.530101-4.768323 1.060202-6.883556 0.530101-2.121697 1.586424-4.238222 2.646626-6.358626 1.060202-1.586424 2.646626-3.176727 4.768324-4.238222 2.116525-1.05503 4.236929-1.585131 6.883555-1.585131 3.706828 0 6.883556 1.060202 9.005253 3.176727 2.116525 2.116525 3.706828 5.298424 4.231757 9.530182h12.18198c-1.060202-7.413657-3.706828-12.706909-8.475151-16.943839-4.231758-3.708121-10.060283-5.823354-17.475233-5.823353-4.236929 0-8.475152 0.524929-11.651878 2.115232-3.176727 1.591596-6.353455 3.708121-8.46998 6.353455-2.121697 2.651798-4.236929 5.828525-5.298424 9.005252-1.060202 3.706828-1.590303 7.414949-1.590304 11.651879s0.530101 7.945051 1.590304 11.651879c1.060202 3.706828 2.646626 6.883556 5.298424 9.530181 2.646626 2.646626 5.293253 4.76703 8.46998 6.353455 3.706828 1.590303 7.413657 2.120404 12.181979 2.120404 3.176727 0 6.353455-0.530101 9.530182-1.060202 3.181899-1.060202 5.298424-2.116525 7.945051-3.706828 2.121697-1.590303 4.236929-3.706828 5.828525-6.353455 1.586424-2.651798 2.116525-5.298424 2.646626-9.005252h-13.23701v1.060202z m22.773657 40.247596h12.176808v-77.848566h-12.176808v77.848566z m51.898181-79.438869c-4.236929 0-8.475152 0.530101-12.181979 2.121697-3.706828 1.585131-6.353455 3.706828-9.005253 6.353454-2.646626 2.645333-4.236929 5.827232-5.293252 9.535354-1.060202 3.706828-2.121697 7.413657-2.121697 12.176808 0 4.236929 0.530101 8.473859 2.121697 11.650586 1.05503 3.706828 3.176727 6.883556 5.293252 9.535353 2.651798 2.646626 5.298424 4.763152 9.005253 6.353455 3.706828 1.586424 7.413657 2.116525 12.181979 2.116525 4.231758 0 8.46998-0.530101 12.176809-2.116525 3.706828-1.590303 6.358626-3.706828 9.005252-6.353455 2.646626-2.651798 4.236929-5.828525 5.293253-9.535353 1.060202-3.706828 2.121697-7.413657 2.121697-11.650586 0-4.238222-0.530101-8.46998-2.121697-12.176808-1.05503-3.708121-3.176727-6.89002-5.293253-9.535354-2.646626-2.646626-5.298424-4.768323-9.005252-6.353454-3.706828-1.061495-7.943758-2.121697-12.176809-2.121697z m0 10.065455c2.646626 0 5.293253 0.530101 7.413657 1.586424a10.395152 10.395152 0 0 1 4.763152 4.76703c1.060202 2.116525 2.121697 4.236929 2.651798 6.353455 0.524929 2.121697 1.05503 4.768323 1.05503 7.414949 0 2.650505-0.530101 4.76703-1.05503 7.413657a17.653657 17.653657 0 0 1-2.651798 6.358626c-1.05503 1.585131-3.176727 3.176727-4.763152 4.761859-2.121697 1.061495-4.236929 1.591596-7.413657 1.591595-2.651798 0-5.298424-0.530101-7.413656-1.591595-2.121697-1.05503-3.706828-2.645333-4.768323-4.761859-1.060202-1.591596-2.121697-4.236929-2.646627-6.358626-0.530101-2.646626-1.060202-4.763152-1.060202-7.413657 0-2.646626 0.530101-4.763152 1.060202-7.414949 0.524929-2.116525 1.586424-4.236929 2.646627-6.353455 1.060202-2.116525 3.176727-3.176727 4.768323-4.76703 2.116525-1.056323 4.231758-1.586424 7.413656-1.586424z m87.908849-8.475152h-12.18198v7.945051c-1.586424-2.646626-3.706828-5.298424-6.883555-6.883556-3.176727-1.591596-5.823354-2.651798-9.005253-2.651798-7.413657 0-12.706909 1.590303-15.883636 5.298424-3.176727 3.706828-4.768323 9.00396-4.768324 16.418909v35.479273h12.18198v-33.894141c0-4.76703 1.05503-8.473859 2.646627-10.590384 2.116525-2.116525 4.768323-3.176727 7.94505-3.176727 2.646626 0 4.768323 0.530101 6.353455 1.060202 1.590303 1.056323 3.176727 2.116525 4.236929 3.176727 1.060202 1.586424 2.116525 3.176727 2.116525 4.763151 0.530101 2.120404 0.530101 3.706828 0.530101 6.358627v32.832646h12.18198v-56.136404h0.530101z m66.19798 0h-11.651879v7.414949c-1.586424-3.176727-4.236929-5.823354-7.413657-6.883555-3.176727-1.591596-6.353455-2.121697-10.060282-2.121697-4.236929 0-8.475152 0.530101-11.651879 2.121697-3.176727 1.585131-5.823354 3.706828-8.475152 6.353454-2.116525 2.645333-3.706828 5.827232-4.763151 9.535354-1.060202 3.706828-1.590303 7.413657-1.590303 11.645414 0 5.298424 0.530101 9.535354 2.116525 13.243475 1.590303 3.706828 3.181899 6.883556 5.298424 9.000081 2.116525 2.650505 4.768323 4.236929 7.945051 5.297131 3.176727 1.060202 5.823354 1.591596 9.005252 1.591596 1.586424 0 3.706828 0 5.293253-0.531394 1.590303-0.530101 3.706828-1.060202 5.298424-1.590303 1.586424-0.530101 3.176727-1.586424 4.763152-2.646626 1.590303-1.060202 2.651798-2.646626 3.706828-4.23693v28.595718h12.18198v-76.788364z m-43.424323 27.540687c0-2.651798 0.530101-4.76703 1.05503-6.888727 0.530101-2.116525 1.590303-4.231758 2.651798-6.353455 1.060202-1.586424 2.646626-3.176727 4.768323-4.236929 2.116525-1.056323 4.231758-1.586424 6.883556-1.586424 2.646626 0 5.293253 0.530101 6.883555 1.586424a10.430061 10.430061 0 0 1 4.768323 4.76703c1.05503 2.116525 2.116525 4.236929 2.646627 6.353455 0.530101 2.121697 1.060202 4.768323 1.060202 7.414949 0 6.358626-1.590303 11.120485-4.23693 14.827313-2.651798 3.706828-6.358626 5.298424-11.121777 5.298424-2.651798 0-5.298424-0.530101-7.413657-1.591595-2.121697-1.05503-3.706828-2.645333-4.768323-4.761859-1.060202-2.121697-2.121697-4.236929-2.646626-6.358626-0.530101-2.116525-0.530101-5.823354-0.530101-8.46998z m-170.525738-121.808162h-0.530101l-10.065454 41.839192h-12.706909l-10.060283-41.839192h-0.530101l-11.121778 41.839192h-13.242182l17.480404-56.136404h13.23701l10.590384 41.837899 10.590384-41.837899h12.712081l17.475232 56.136404h-12.706909l-11.121778-41.839192z m124.449616 43.429495c-2.116525 0-3.706828-0.528808-5.293252-1.058909-1.590303-0.530101-3.706828-1.591596-4.768323-2.646626-1.060202-1.060202-2.646626-2.653091-3.706829-4.236929-1.060202-1.591596-1.590303-3.17802-2.121697-4.238223v10.591677h-11.646707v-56.136404h12.176808v27.009293c0 3.176727 0.530101 5.823354 1.060202 8.476444 1.060202 2.646626 2.116525 4.235636 3.176728 5.823354 1.590303 1.58901 3.176727 2.646626 4.768323 3.706828 1.586424 1.058909 3.706828 1.058909 5.823353 1.058909h2.651798c1.05503 0 1.586424 0 2.646627-0.530101v12.18198h-4.767031z m50.843152 20.121859v-28.59701c-1.060202 1.591596-2.121697 2.646626-3.712 4.238222-1.586424 1.060202-3.176727 2.115232-4.763152 2.646626-1.590303 0.530101-3.176727 1.060202-5.298424 1.58901-1.586424 0.530101-3.706828 0.530101-5.293252 0.530101-3.181899 0-5.828525-0.530101-9.005253-1.58901-3.176727-1.061495-5.298424-2.646626-7.94505-5.299717-2.646626-2.646626-4.236929-5.293253-5.293253-9.000081-1.590303-3.705535-2.121697-7.943758-2.121697-13.240889 0-4.231758 0.530101-7.941172 1.590303-11.648 1.05503-3.705535 2.646626-6.887434 4.763152-9.535353 2.121697-2.646626 4.768323-4.76703 8.475151-6.353455 3.176727-1.58901 7.413657-2.121697 11.651879-2.121697 3.706828 0 6.883556 0.531394 10.060283 2.121697 3.176727 1.587717 5.828525 3.706828 7.413656 6.883556v-7.412364h11.651879v77.848566h-12.176808v-1.060202z m-0.530101-57.192727c-0.530101-2.120404-1.590303-4.235636-2.651798-6.358627-1.05503-2.116525-2.646626-3.176727-4.763152-4.761858-2.121697-1.061495-4.236929-1.591596-6.888727-1.591596-2.646626 0-4.763152 0.530101-6.883556 1.591596a12.428929 12.428929 0 0 0-4.763151 4.236929 17.638141 17.638141 0 0 0-2.651798 6.353455c-0.530101 2.116525-1.05503 4.768323-1.05503 6.882262 0 2.646626 0.524929 4.768323 1.05503 7.41495a17.635556 17.635556 0 0 0 2.651798 6.353454c1.05503 2.120404 2.646626 3.706828 4.763151 4.76703 2.121697 1.060202 4.236929 1.591596 7.413657 1.591596 4.768323 0 8.475152-1.591596 11.121778-5.298424 2.651798-3.706828 4.236929-8.476444 4.236929-14.829899-0.530101-1.587717-1.05503-3.704242-1.585131-6.350868z m-90.560647 19.065535c-1.060202 3.706828-3.176727 6.883556-5.298424 9.530182-2.646626 2.646626-5.293253 4.768323-9.000081 6.353454-3.706828 1.591596-7.413657 2.121697-12.181979 2.121697s-8.475152-0.528808-12.18198-2.121697c-3.706828-1.585131-6.353455-3.706828-9.000081-6.353454s-4.236929-5.823354-5.298424-9.530182c-1.05503-3.706828-2.116525-7.412364-2.116526-11.650586 0-4.238222 0.530101-8.475152 2.116526-12.18198 1.060202-3.708121 3.176727-6.884848 5.298424-9.535353 2.646626-2.646626 5.293253-4.764444 9.000081-6.353455 3.706828-1.587717 7.413657-2.116525 12.18198-2.116525s8.475152 0.528808 12.181979 2.116525c3.706828 1.58901 6.353455 3.706828 9.000081 6.353455 2.651798 2.650505 4.236929 5.827232 5.298424 9.535353 1.060202 3.706828 2.116525 7.412364 2.116526 12.18198-0.524929 4.238222-1.056323 8.468687-2.116526 11.650586z m-11.651878-19.065535c-0.530101-2.120404-1.586424-4.235636-2.646627-6.358627-1.060202-2.116525-3.176727-3.176727-4.768323-4.761858-2.116525-1.061495-4.236929-1.591596-7.413656-1.591596s-5.293253 0.530101-7.413657 1.591596a10.395152 10.395152 0 0 0-4.768323 4.761858c-1.05503 2.12299-2.116525 4.238222-2.646627 6.358627-0.530101 2.117818-1.060202 4.764444-1.060202 7.414949 0 2.645333 0.530101 4.761859 1.060202 7.413657a17.746747 17.746747 0 0 0 2.646627 6.353454c1.060202 1.58901 3.181899 3.176727 4.768323 4.76703 2.121697 1.056323 4.236929 1.586424 7.413657 1.586425s5.298424-0.528808 7.413656-1.586425c2.121697-1.060202 3.706828-2.650505 4.768323-4.76703 1.060202-2.117818 2.116525-4.236929 2.646627-6.353454 0.530101-2.12299 1.060202-4.768323 1.060202-7.413657 0.001293-2.651798-0.528808-4.768323-1.060202-7.414949z m0 0M425.388606 120.242424h17.473939l14.833778-56.136404h0.52493L472.524929 120.242424h16.943839l13.238303-56.136404h0.530101L518.595879 120.242424h16.94901l-23.302465-75.196767h-16.94901l-13.767111 55.607596h-0.530101l-13.768404-55.607596H449.753859L425.388606 120.242424z m154.110707-77.317171c-5.828525 0-11.121778 1.060202-15.888808 3.176727-4.768323 2.120404-8.475152 4.76703-11.651879 7.943757-3.176727 3.706828-5.823354 7.413657-7.413656 12.712081-1.586424 4.764444-2.646626 10.060283-2.646627 15.883637 0 5.828525 1.060202 11.123071 2.646627 15.888808 1.590303 4.768323 4.236929 9.005253 7.413656 12.71208 3.176727 3.708121 7.413657 6.353455 11.651879 7.946344 4.768323 2.116525 10.060283 3.176727 15.888808 3.176727 5.823354 0 11.121778-1.060202 15.883636-3.176727 4.768323-2.12299 8.475152-4.768323 11.651879-7.946344s5.828525-7.412364 7.413657-12.71208c1.590303-4.76703 2.651798-10.060283 2.651798-15.888808 0-5.823354-1.060202-11.120485-2.651798-15.883637-1.586424-4.76703-4.236929-9.005253-7.413657-12.712081-3.176727-3.705535-7.413657-6.352162-11.651879-7.943757-4.231758-2.115232-9.530182-3.176727-15.883636-3.176727z m0 13.242181c3.706828 0 6.883556 0.524929 9.530182 2.115233 2.646626 1.591596 4.768323 3.708121 6.883556 6.353454 1.590303 2.651798 3.176727 5.298424 3.706828 8.475152 1.060202 3.176727 1.060202 6.353455 1.060202 9.530182 0 3.181899-0.530101 6.358626-1.060202 9.535353-1.05503 3.176727-2.116525 5.823354-3.706828 8.476445-1.586424 2.646626-3.706828 4.230465-6.883556 5.823353-2.646626 1.58901-5.823354 2.116525-9.530182 2.116525s-6.883556-0.526222-9.535353-2.116525c-2.646626-1.591596-4.763152-3.706828-6.883556-5.823353-2.116525-2.12299-3.176727-5.299717-3.706828-8.476445-1.060202-3.176727-1.060202-6.353455-1.060202-9.535353 0-3.176727 0.530101-6.353455 1.060202-9.530182 1.060202-3.176727 2.121697-5.823354 3.706828-8.475152 1.590303-2.645333 3.706828-4.761859 6.883556-6.353454 2.651798-1.58901 5.828525-2.115232 9.535353-2.115233zM631.398788 120.242424h15.358707v-14.297212h0.530101c0.524929 2.120404 1.586424 4.235636 2.646626 5.828525a25.050505 25.050505 0 0 0 5.293253 5.29196c2.121697 1.591596 4.236929 2.646626 6.358626 3.706828 2.646626 1.061495 4.763152 1.591596 7.413657 1.591596h4.236929c0.524929 0 1.586424 0 2.116525-0.530101v-15.888808c-1.060202 0-2.116525 0.530101-3.706828 0.530101h-3.706828c-2.646626 0-5.298424-0.530101-7.945051-1.591596-2.646626-1.053737-4.768323-2.645333-6.353454-4.761858-1.590303-2.12299-3.176727-4.768323-4.23693-7.946344s-1.590303-6.883556-1.590303-11.120485v-35.485737h-16.413737V120.242424z m121.80299-75.196767h-15.888808v10.060282h-0.530101c-2.116525-4.236929-5.293253-7.412364-9.530182-9.535353-4.236929-2.115232-9.005253-2.645333-13.23701-2.645333-5.828525 0-11.121778 1.060202-15.358707 3.176727-4.236929 2.120404-7.945051 4.76703-11.121778 8.473858-2.651798 3.706828-5.298424 7.946343-6.358626 12.712081-1.586424 4.764444-2.116525 10.061576-2.116526 15.883637 0 6.884848 1.060202 12.712081 2.646627 17.481697 1.590303 4.763152 4.236929 9.000081 7.413656 12.176808s6.358626 5.298424 10.590384 6.882262c3.706828 1.591596 7.945051 2.12299 12.18198 2.12299 2.121697 0 4.768323 0 6.883555-0.530101 2.651798-0.531394 4.768323-1.061495 6.883556-2.116525 2.121697-1.060202 4.236929-2.12299 6.358626-3.706828 2.116525-1.591596 3.706828-3.181899 4.763152-5.299718h0.530101v38.661172h16.418909v-103.797656h-0.528808z m-57.722829 36.54206c0-3.176727 0.524929-6.358626 1.055031-9.535353 1.060202-3.176727 2.121697-5.823354 3.706828-8.471273 1.590303-2.651798 3.706828-4.235636 6.358626-5.828525 2.646626-1.585131 5.823354-2.115232 9.530182-2.115233s6.883556 0.530101 9.530182 2.115233a18.276848 18.276848 0 0 1 6.358626 6.353454c1.586424 2.651798 3.176727 5.299717 3.706829 8.476445 1.05503 3.175434 1.05503 6.352162 1.05503 9.535353 0 8.46998-2.116525 14.828606-5.823354 19.589172-3.706828 4.768323-9.005253 6.884848-15.358707 6.884848-3.706828 0-6.883556-1.056323-10.060283-2.646626a18.230303 18.230303 0 0 1-6.353454-6.353454c-1.590303-2.646626-2.651798-5.298424-3.706828-8.475152v-9.528889z m0 0M226.797253 154.136566H205.61002l-13.23701 50.31305h-0.530101l-12.712081-50.31305H157.948768l-23.827394 75.201939H155.832242l13.768404-50.836687h0.530101l12.70691 50.836687h20.12703l12.712081-50.836687h0.524929l13.772283 50.836687h21.18206l-24.358787-75.201939z m50.839272 37.072161c0-3.176727 0.530101-5.824646 1.060202-9.001373 0.524929-2.651798 1.585131-5.298424 3.176728-7.943758 1.585131-2.121697 3.176727-4.238222 5.823353-5.298424 2.120404-1.587717 5.297131-2.117818 8.473859-2.117818 3.708121 0 6.354747 0.530101 9.005252 2.117818 2.116525 1.58901 4.233051 3.176727 5.823354 5.298424 1.591596 2.115232 2.646626 4.76703 3.176727 7.943758 0.530101 2.647919 1.061495 5.824646 1.061495 9.001373 0 3.175434-0.531394 5.828525-1.061495 9.005253-0.530101 2.646626-1.585131 5.293253-3.176727 7.943757-1.590303 2.646626-3.176727 4.238222-5.823354 5.293253-2.120404 1.591596-5.297131 2.12299-9.005252 2.12299-3.706828 0-6.353455-0.530101-8.473859-2.12299-2.116525-1.585131-4.238222-3.176727-5.823353-5.293253-1.591596-2.120404-2.651798-4.76703-3.176728-7.943757-1.060202-2.646626-1.060202-5.829818-1.060202-9.005253z m-20.657131 0c0 5.828525 1.060202 11.651879 2.651798 16.417616 1.585131 4.768323 4.236929 9.000081 7.943757 12.70691 3.176727 3.181899 7.414949 6.358626 12.176809 7.946343 4.768323 2.121697 10.065455 2.651798 15.888808 2.651798 5.828525 0 11.121778-1.061495 15.888808-2.651798 4.768323-2.117818 9.000081-4.764444 12.18198-7.946343 3.176727-3.176727 5.823354-7.412364 7.939878-12.70691 2.120404-5.297131 2.651798-10.589091 2.651798-16.417616 0-5.824646-1.061495-11.653172-2.651798-16.413737-1.586424-4.768323-4.233051-9.005253-7.939878-12.18198-3.706828-3.176727-7.413657-5.823354-12.18198-7.946343-4.76703-1.585131-10.060283-2.646626-15.888808-2.646627-5.823354 0-11.120485 1.061495-15.888808 2.646627-4.761859 1.591596-9.000081 4.238222-12.176809 7.946343-3.181899 3.176727-5.828525 7.412364-7.943757 12.18198-1.591596 5.290667-2.651798 10.589091-2.651798 16.413737z m91.090747 37.599677H367.665778v-13.765818h0.530101c1.056323 2.115232 2.116525 4.236929 3.708121 6.353454 1.585131 2.120404 3.706828 3.706828 5.823354 5.297132 2.115232 1.587717 4.236929 2.646626 6.883555 3.176727 2.646626 0.531394 4.768323 1.061495 7.413657 1.061495 1.591596 0 2.646626 0 4.238222-0.530101v-19.066828c-1.061495 0-2.116525 0.531394-3.708121 0.531394h-3.706829c-3.706828 0-6.883556-0.531394-9.530181-2.121697-2.651798-1.05503-4.76703-3.176727-6.358627-5.294546-1.585131-2.120404-2.646626-4.76703-3.176727-7.412363-0.530101-2.653091-1.060202-5.828525-1.060202-9.535354v-33.894141h-20.65196v75.200646z m109.626182-37.070869c0 3.176727-0.530101 5.829818-1.060202 9.006546-0.530101 2.646626-1.591596 5.293253-3.176727 7.412363-1.591596 2.116525-3.176727 3.708121-5.298424 5.293253-2.116525 1.591596-5.298424 2.12299-8.475152 2.12299s-6.353455-0.530101-8.468687-2.12299c-2.121697-1.585131-4.238222-3.176727-5.828525-5.293253-1.586424-2.120404-2.646626-4.76703-3.176727-7.412363-0.530101-2.653091-1.060202-5.829818-1.060202-9.006546 0-2.646626 0.530101-5.823354 1.060202-8.475151 0.530101-2.645333 1.590303-5.29196 3.176727-7.938586 1.590303-2.12299 3.176727-4.236929 5.828525-5.299717 2.115232-1.58901 4.761859-2.116525 7.938586-2.116525 3.181899 0 6.358626 0.526222 8.475152 2.116525 2.121697 1.591596 4.236929 3.176727 5.298424 5.299717 1.585131 2.116525 2.115232 4.761859 2.645333 7.938586 1.591596 2.121697 2.121697 5.298424 2.121697 8.475151z m0.52493-28.065616c-2.646626-4.235636-5.823354-6.882263-10.060283-9.005252-3.706828-1.585131-8.475152-2.646626-13.23701-2.646627-5.828525 0-10.595556 1.061495-14.828606 3.176728-4.236929 2.116525-7.943758 5.298424-10.595556 9.005252-2.646626 3.706828-4.763152 7.941172-6.353455 12.706909-1.586424 4.768323-2.116525 10.061576-2.116525 15.358707 0 5.299717 0.530101 10.061576 2.116525 14.828606 1.590303 4.768323 3.706828 9.006545 6.353455 12.183273 2.651798 3.705535 6.358626 6.353455 10.595556 8.46998 4.233051 2.120404 9.000081 3.181899 14.298505 3.181899 4.236929 0 8.468687-1.061495 12.706909-2.651798 4.236929-2.117818 7.413657-4.764444 9.535353-8.471273h0.530101v37.595798h20.65196v-103.267555h-19.596929v9.535353z m126.571313 38.657293c-1.586424 8.473859-6.353455 12.712081-15.358707 12.712081-3.176727 0-5.823354-0.531394-8.46998-2.121697-2.121697-1.587717-4.236929-3.176727-5.298424-5.824647-1.586424-2.116525-2.646626-4.76703-3.176728-7.943757-0.530101-2.646626-1.060202-5.823354-1.060202-8.475152 0-2.646626 0.530101-5.294545 1.060202-8.471272 0.530101-2.651798 1.590303-5.298424 2.646627-7.412364 1.060202-2.12299 3.176727-4.238222 5.298424-5.828525 2.116525-1.587717 4.768323-2.117818 7.94505-2.117818 4.763152 0 8.46998 1.587717 11.651879 4.238222 2.646626 2.645333 4.231758 6.353455 4.763152 11.120485H604.918303c-1.590303-10.064162-5.298424-17.479111-11.651879-22.771071-6.353455-5.299717-14.828606-7.946343-24.358788-7.946343-5.828525 0-10.595556 1.061495-15.358707 2.646626-4.768323 2.12299-8.475152 4.768323-12.18198 7.946343-3.176727 3.176727-5.823354 7.412364-7.94505 12.18198-1.586424 4.76703-2.646626 10.060283-2.646626 15.357414 0 5.823354 1.060202 11.123071 2.646626 16.41503 1.590303 4.76703 4.236929 9.535354 7.413657 12.712081 3.176727 3.706828 7.413657 6.353455 12.181979 8.473859 4.768323 2.116525 10.060283 3.17802 16.413738 3.17802 4.236929 0 8.475152-0.531394 12.712081-1.591596 4.236929-1.058909 7.945051-3.175434 11.121777-5.293252 3.176727-2.120404 5.823354-5.297131 7.945051-9.005253 2.116525-3.706828 3.176727-7.943758 3.706828-12.712081h-20.125737v0.532687z m32.307717 55.074909h20.651959v-103.267555h-20.651959v103.267555z m55.606303-66.195394c0-3.176727 0.530101-5.824646 1.05503-9.001373 0.530101-2.651798 1.590303-5.298424 3.181899-7.943758 1.586424-2.121697 3.176727-4.238222 5.823354-5.298424 2.116525-1.587717 5.298424-2.117818 8.475151-2.117818 3.706828 0 6.353455 0.530101 9.000081 2.117818 2.121697 1.58901 4.236929 3.176727 5.828525 5.298424 1.586424 2.115232 2.646626 4.76703 3.176728 7.943758s1.060202 5.824646 1.060202 9.001373c0 3.175434-0.530101 5.828525-1.060202 9.005253s-1.590303 5.293253-3.176728 7.943757c-1.590303 2.116525-3.176727 4.238222-5.828525 5.293253-2.646626 1.060202-5.293253 2.12299-9.000081 2.12299s-6.358626-0.530101-8.475151-2.12299c-2.116525-1.585131-4.236929-3.176727-5.823354-5.293253-1.590303-2.120404-2.651798-4.76703-3.181899-7.943757-1.05503-2.646626-1.05503-5.829818-1.05503-9.005253z m-20.657131 0c0 5.828525 1.060202 11.651879 2.651798 16.417616 1.586424 4.768323 4.231758 9.000081 7.939878 12.70691 3.181899 3.181899 7.413657 6.358626 12.18198 7.946343 4.768323 2.121697 10.060283 2.651798 15.888808 2.651798 5.823354 0 11.121778-1.061495 15.888808-2.651798 4.763152-2.117818 9.000081-4.764444 12.176808-7.946343 3.176727-3.176727 5.828525-7.412364 7.945051-12.70691 2.121697-5.297131 2.646626-10.589091 2.646626-16.417616 0-5.824646-1.05503-11.653172-2.646626-16.413737-1.586424-4.768323-4.236929-9.005253-7.945051-12.18198-3.176727-3.176727-7.413657-5.823354-12.176808-7.946343-4.768323-1.585131-10.065455-2.646626-15.888808-2.646627-5.828525 0-11.121778 1.061495-15.888808 2.646627-4.768323 1.591596-9.000081 4.238222-12.18198 7.946343-3.176727 3.176727-5.823354 7.412364-7.939878 12.18198-2.121697 5.290667-2.651798 10.589091-2.651798 16.413737z m161.525656-37.072161h-19.595636v10.591676h-0.530101c-2.646626-4.233051-5.823354-7.414949-10.060283-9.531474-4.236929-2.115232-8.475152-2.645333-12.712081-2.645334-5.293253 0-10.060283 0.530101-13.767111 2.115233-3.706828 1.591596-6.353455 3.706828-8.475152 6.353454-2.116525 2.651798-3.706828 5.828525-4.236929 9.535354-0.524929 3.708121-1.05503 7.946343-1.05503 12.706909v46.076121h20.651959v-42.368c0-6.353455 1.060202-10.591677 2.646627-13.768404 2.121697-3.176727 5.298424-4.76703 10.065454-4.76703 5.823354 0 9.530182 1.58901 12.18198 4.76703 2.646626 3.176727 3.706828 9.005253 3.706828 16.418909v39.187394h20.65196v-74.671838h0.527515z m68.843313 37.600969c0 3.176727-0.530101 5.829818-1.05503 9.006546-0.530101 2.646626-1.590303 5.293253-3.181899 7.412363a25.025939 25.025939 0 0 1-5.293253 5.293253c-2.121697 1.591596-5.298424 2.12299-8.475151 2.12299s-6.353455-0.530101-8.475152-2.12299c-2.116525-1.585131-4.231758-3.176727-5.823353-5.293253-1.590303-2.120404-2.646626-4.76703-3.176727-7.412363-0.530101-2.653091-1.060202-5.829818-1.060202-9.006546 0-2.646626 0.530101-5.823354 1.060202-8.475151 0.530101-2.645333 1.586424-5.29196 3.176727-7.938586 1.590303-2.12299 3.176727-4.236929 5.823353-5.299717 2.121697-1.58901 4.768323-2.116525 7.945051-2.116525s6.358626 0.526222 8.475151 2.116525c2.116525 1.591596 4.236929 3.176727 5.298425 5.299717 1.586424 2.116525 2.116525 4.761859 2.646626 7.938586 1.585131 2.121697 2.115232 5.298424 2.115232 8.475151z m0-28.065616c-2.646626-4.235636-5.823354-6.882263-10.060283-9.005252-4.236929-2.115232-8.475152-2.646626-13.23701-2.646627-5.828525 0-10.595556 1.061495-14.828606 3.176728-4.236929 2.116525-7.945051 5.298424-10.595555 9.005252-2.646626 3.706828-4.763152 7.941172-6.353455 12.706909-1.586424 4.768323-2.116525 10.061576-2.116525 15.358707 0 5.299717 0.530101 10.061576 2.116525 14.828606 1.590303 4.768323 3.706828 9.006545 6.353455 12.183273 2.651798 3.705535 6.358626 6.353455 10.595555 8.46998 4.231758 2.120404 9.000081 3.181899 14.298505 3.181899 4.236929 0 8.46998-1.061495 12.706909-2.651798 4.236929-2.117818 7.413657-4.764444 9.535354-8.471273h0.530101v37.595798h20.65196v-103.267555H882.419717v9.535353z m0 0"  horiz-adv-x="1024" />

    
    <glyph glyph-name="fsux_tubiao_zhuzhuangtu1" unicode="&#58902;" d="M142.222 369.778h142.222v-312.89H142.222zM341.333 711.111h142.223V56.889999999999986H341.333zM540.444 483.556h142.223v-426.667H540.444zM739.556 284.44399999999996h142.222V56.889999999999986H739.556z"  horiz-adv-x="1024" />

    
    <glyph glyph-name="fsux_zhexiantu" unicode="&#58903;" d="M497.778 105.24400000000003L304.356 244.62199999999996l-133.69-108.089-54.044 68.267 182.045 147.911 204.8-145.067 358.4 213.334 45.51-73.956zM497.778 361.244L304.356 500.622l-133.69-108.089-54.044 68.267 182.045 147.911 204.8-145.067 358.4 213.334 45.51-73.956z"  horiz-adv-x="1024" />

    
    <glyph glyph-name="ic_tubiao_mianji" unicode="&#58904;" d="M85.333 71.111S201.956 696.89 352.711 696.89c125.156 0 119.467-227.556 213.333-227.556s76.8 116.623 176.356 116.623c156.444 0 196.267-512 196.267-512H85.333zM85.333 71.111s116.623 310.045 267.378 310.045c125.156 0 119.467-113.778 213.333-113.778s76.8 56.889 176.356 56.889c156.444 0 196.267-256 196.267-256H85.333z"  horiz-adv-x="1024" />

    
    <glyph glyph-name="fsux_tubiao_sandiantu" unicode="&#58905;" d="M29.125818 286.678626c0-63.550061 50.313051-113.859232 113.864404-113.859232 63.544889 0 113.857939 50.307879 113.85794 113.859232s-50.313051 113.863111-113.85794 113.863111c-63.551354 0-113.864404-50.313051-113.864404-113.863111z m0 0M516.342949 599.131798c0-45.014626 34.424242-79.433697 79.440162-79.433697 42.364121 0 79.43499 37.070869 79.43499 79.433697 0 45.015919-34.419071 79.440162-79.43499 79.440162s-79.440162-37.070869-79.440162-79.440162z m0 0M852.631273 220.480646c0-50.313051 39.717495-90.030545 90.030545-90.030545 50.307879 0 90.025374 39.717495 90.025374 90.030545 0 50.307879-39.717495 90.030545-90.025374 90.030546-50.313051 2.646626-90.030545-39.722667-90.030545-90.030546z m0 0M0 80.142222c0-26.479192 21.182061-47.661253 47.661253-47.661252 26.480485 0 47.662545 21.182061 47.662545 47.661252s-21.182061 47.65996-47.662545 47.65996c-26.479192 0.001293-47.661253-21.179475-47.661253-47.65996z m1048.576 373.35402a23.731717 23.731717 0 0 1 23.833859-23.828686 23.730424 23.730424 0 0 1 23.828686 23.828686 23.730424 23.730424 0 0 1-23.828686 23.832566 23.731717 23.731717 0 0 1-23.833859-23.832566z m0 0M887.050343 487.920485c0-15.888808 13.242182-26.480485 26.479192-26.480485 15.888808 0 26.479192 13.243475 26.479192 26.480485 0 15.888808-13.23701 26.479192-26.479192 26.479192-15.883636 2.646626-26.479192-10.590384-26.479192-26.479192z m0 0M296.565657 699.75402c0-18.535434 15.888808-34.424242 34.424242-34.424242s34.424242 15.888808 34.424242 34.424242-15.888808 34.424242-34.424242 34.424243c-18.535434 2.646626-34.424242-13.243475-34.424242-34.424243z m0 0M675.216808 384.652929c0-18.535434 13.242182-31.777616 31.777616-31.777616s31.772444 15.888808 31.772445 31.777616c0 18.535434-13.23701 31.772444-31.772445 31.772445s-31.777616-13.23701-31.777616-31.772445z m0 0M378.651152 387.299556c0-18.535434 13.242182-31.773737 31.777616-31.773738s31.773737 13.23701 31.773737 31.773738c0 18.535434-13.238303 31.777616-31.773737 31.777616s-31.777616-13.242182-31.777616-31.777616z m0 0M264.793212 543.526788c0-13.238303 10.590384-26.480485 23.827394-26.480485 13.243475 0 23.833859 10.591677 23.833859 26.480485 0 13.242182-10.590384 26.479192-23.833859 26.479192-13.23701 0-23.827394-13.23701-23.827394-26.479192z m0 0M526.934626 241.662707a23.731717 23.731717 0 0 1 23.833859-23.828687 23.730424 23.730424 0 0 1 23.828687 23.828687 23.731717 23.731717 0 0 1-23.828687 23.833859 23.73301 23.73301 0 0 1-23.833859-23.833859z m0 0"  horiz-adv-x="1096" />

    
    <glyph glyph-name="fsux_tubiao_duibitu" unicode="&#58906;" d="M542.535111 700.478061h171.52v-100.851071h-171.52zM542.535111 559.283717H901.171717v-100.851071H542.535111zM542.535111 418.09196h233.893495v-100.853657H542.535111zM542.535111 276.897616h124.743111v-100.852363h-124.743111zM316.833616 276.896323h171.52v-100.85107h-171.52zM129.71701 418.090667h358.636606v-100.849778H129.71701zM254.460121 559.28501h233.893495v-100.853656H254.460121zM363.609212 700.478061h124.743111v-100.852364h-124.743111z"  horiz-adv-x="1024" />

    
    <glyph glyph-name="fsux_tubiao_zhifangtu" unicode="&#58907;" d="M129.292929 368.355556h147.135354v-323.620202H129.292929zM335.256566 721.454545h147.135353v-676.719191H335.256566zM541.220202 486.141414h147.135354v-441.276768H541.220202zM747.183838 280.177778h147.135354v-235.313132H747.183838z"  horiz-adv-x="1024" />

    
    <glyph glyph-name="fsux_tubiao_sangjitu" unicode="&#58908;" d="M160.43750008 456.60964165c274.45845193 0 384.92098684-239.30220202 672.16352972-248.69051851 10.1873226 96.57981207-1.59801146 82.59721273 0 161.59889868-264.27112933 0-298.22887084 248.69051851-672.16352972 248.69051852 0.79900535-70.01287253 1.19850841-71.2113817 0-161.59889869z m0 0M160.43750008 309.6924719c274.45845193 0 384.92098684 269.96404484 672.16352972 278.95285826 0.39950305-82.99671502-1.59801146-81.79820661 0-160.00088799-264.27112933 0-298.22887084-278.95285904-672.16352972-278.95285827 0.79900535 69.21386719 1.19850841 70.01287253 0 160.000888z m0 0M160.43750008 375.61044038c269.96404484 4.4944071 301.12526647-231.11239316 672.16352972-255.28231513 0.39950305 85.89311064-1.59801146-43.34605799 0 37.65314249-351.06312109 32.25985428-380.12695321 255.28231512-672.16352972 255.28231514 0.79900535-72.01038706 1.19850841 55.23126784 0-37.6531425z m0 0M160.43750008 120.32812524999997h30.66184282V647.27237246h-30.66184282V120.32812524999997z m672.16352972 0h30.66184282V647.27237246h-30.66184282V120.32812524999997z m0 0"  horiz-adv-x="1024" />

    
    </font>
</defs>
</svg>
